<?xml version="1.0" encoding="UTF-8"?> <!-- Generator: Adobe Illustrator 24.0.1, SVG Export Plug-In . SVG Version: 6.00 Build 0) --> <svg xmlns="http://www.w3.org/2000/svg" xmlns:xlink="http://www.w3.org/1999/xlink" id="Calque_1" x="0px" y="0px" viewBox="0 0 190.12 47.33" style="enable-background:new 0 0 190.12 47.33;" xml:space="preserve"> <style type="text/css"> .st0{fill:#87AF2C;} .st1{fill:#FFFFFF;} </style> <symbol id="Nouveau_symbole_6" viewBox="-95.06 -23.66 190.12 47.33"> <rect x="-95.06" y="-23.66" class="st0" width="190.12" height="47.33"></rect> <rect x="-94.43" y="-23.13" class="st1" width="46.26" height="46.26"></rect> <g> <g> <path class="st1" d="M-19.85,16.71c-0.97,0-1.54-0.56-1.61-1.61V-0.13l-16.39,16.35c-0.37,0.33-0.82,0.49-1.23,0.49 c-1-0.04-1.56-0.61-1.6-1.61V-4c0.03-1.03,0.61-1.6,1.61-1.6c0.97,0,1.54,0.56,1.61,1.61l0,15.24c0.07-0.05,0.15-0.12,0.26-0.23 l16.14-16.14c0.36-0.33,0.76-0.49,1.18-0.49c0.15,0,0.29,0.02,0.43,0.05c0.53,0.11,1.18,0.46,1.27,1.6l0,19.08 C-18.27,16.15-18.86,16.71-19.85,16.71z"></path> <path class="st1" d="M-5.39,16.67c-2.61,0-4.97-0.83-6.99-2.47c-2.03-1.64-3.33-3.75-3.87-6.27c-0.1-0.47-0.04-0.85,0.19-1.14 c0.27-0.34,0.73-0.5,1.41-0.5c0.58,0,1.33,0.26,1.6,1.46c0.47,1.69,1.42,3.09,2.83,4.17c1.41,1.08,3.04,1.62,4.83,1.62 c2.21,0,4.12-0.79,5.67-2.33s2.33-3.46,2.33-5.67c0-2.19-0.79-4.09-2.33-5.65c-1.55-1.56-3.45-2.35-5.67-2.35 c-1.77,0-3.39,0.55-4.81,1.63c-1.43,1.08-2.42,2.48-2.93,4.09c-0.07,0.99-0.63,1.54-1.57,1.54c-0.65,0-1.1-0.16-1.37-0.49 c-0.23-0.29-0.3-0.68-0.19-1.16c0.6-2.58,1.92-4.7,3.91-6.31c2-1.61,4.34-2.42,6.95-2.42c3.06,0,5.72,1.1,7.9,3.26 c2.18,2.16,3.28,4.81,3.28,7.88c0,3.06-1.1,5.71-3.28,7.88C0.33,15.58-2.33,16.67-5.39,16.67z"></path> <path class="st1" d="M29.38,15.13c-0.07,0.99-0.63,1.54-1.57,1.54c-0.94,0-1.49-0.55-1.57-1.57v-1.16 c-0.02-0.26-0.05-0.38-0.05-0.42c-0.08,0.02-0.25,0.08-0.53,0.34l-0.39,0.35c-1.84,1.63-4.2,2.46-7.03,2.46 c-2.64,0-5-0.83-7.02-2.47c-2.01-1.64-3.31-3.75-3.85-6.27C7.28,7.46,7.34,7.07,7.58,6.78c0.27-0.33,0.71-0.49,1.37-0.49 c0.6,0,1.37,0.26,1.64,1.46c0.47,1.69,1.42,3.09,2.83,4.17c1.41,1.08,3.03,1.62,4.83,1.62c2.21,0,4.12-0.79,5.67-2.33 c1.55-1.55,2.33-3.46,2.33-5.67c0-2.18-0.79-4.09-2.34-5.65c-1.55-1.56-3.45-2.35-5.67-2.35c-1.77,0-3.39,0.55-4.81,1.63 c-1.43,1.08-2.42,2.48-2.93,4.09c-0.07,0.99-0.63,1.54-1.56,1.54c-0.65,0-1.1-0.16-1.37-0.49C7.34,4,7.28,3.61,7.39,3.13 c0.6-2.58,1.91-4.7,3.89-6.31c1.99-1.61,4.33-2.42,6.97-2.42c2.79,0,5.3,0.96,7.47,2.85c0.28,0.26,0.45,0.29,0.44,0.33 c0,0,0.07-0.09,0.09-0.43l0-1.21c0.07-0.99,0.63-1.54,1.56-1.54c0.94,0,1.49,0.55,1.57,1.57L29.38,15.13z"></path> </g> <path class="st1" d="M38.63,15.26c2.31-0.27,2.64-1.62,2.64-2.41V-4.82c0.02-0.58,0.24-0.69,0.69-0.69c0.43,0,0.65,0.11,0.69,0.74 l0,17.77c0,0.68,0.26,2.26,2.69,2.26h6.86c0.68,0.05,0.74,0.34,0.74,0.69s-0.06,0.64-0.78,0.69l-20.68,0 c-0.68-0.05-0.74-0.34-0.74-0.69s0.06-0.64,0.78-0.69L38.63,15.26z"></path> <path class="st1" d="M59.37-5.51l4.39,0c0.11,0,0.2,0.09,0.2,0.2v0.86c0,0.11-0.09,0.2-0.2,0.2h-4.47 c-1.23,0.03-2.28,0.49-3.14,1.36c-0.89,0.91-1.34,2-1.34,3.26c0,1.3,0.46,2.41,1.37,3.29c0.9,0.88,2,1.33,3.28,1.33l0.05,0.01h4.3 c0.11,0,0.2,0.09,0.2,0.2v0.92c0,0.11-0.09,0.2-0.2,0.2h-4.7c-1.18,0.08-2.16,0.53-2.96,1.34c-0.89,0.91-1.34,2-1.34,3.26 s0.45,2.35,1.34,3.26c0.89,0.91,1.98,1.37,3.24,1.37l4.43-0.01c0.11,0,0.2,0.09,0.2,0.2v0.85c0,0.11-0.09,0.2-0.2,0.2l-4.47,0.02 c-1.58-0.02-2.93-0.58-4.09-1.75c-1.16-1.16-1.73-2.52-1.73-4.15c0-1.97,0.81-3.53,2.47-4.75l0.71-0.52l-0.71-0.52 c-1.66-1.22-2.47-2.78-2.47-4.76c0-1.63,0.57-2.99,1.73-4.15c1.12-1.12,2.42-1.68,3.99-1.71L59.37-5.51L59.37-5.51"></path> <path class="st1" d="M77.57,16.75c-3.07,0-5.73-1.1-7.91-3.26c-2.21-2.2-3.29-4.78-3.29-7.89s1.08-5.7,3.29-7.89 c2.18-2.17,4.84-3.27,7.91-3.27c2.44,0,4.63,0.69,6.51,2.04c1.88,1.35,3.23,3.2,4.01,5.49c0.03,0.09,0.05,0.15-0.11,0.27 c-0.22,0.18-0.44,0.26-0.67,0.26c-0.33,0-0.46-0.1-0.55-0.22L86.6,1.59c-0.9-1.79-2.13-3.17-3.72-4.24 c-1.61-1.08-3.39-1.62-5.3-1.62c-2.69,0-5.03,0.98-6.96,2.9c-1.92,1.92-2.9,4.27-2.9,6.96c0,2.73,0.98,5.07,2.9,6.98 c1.92,1.91,4.26,2.88,6.96,2.88c1.88,0,3.66-0.53,5.29-1.59c1.63-1.06,2.84-2.39,3.59-3.96c0.11-0.33,0.19-0.59,0.26-0.83 c0.07-0.08,0.22-0.19,0.6-0.19c0.79,0,0.79,0.24,0.79,0.41c0,0.03,0,0.08-0.03,0.18c-0.73,2.11-2.09,3.89-4.01,5.24 C82.14,16.06,79.95,16.75,77.57,16.75z"></path> </g> <path class="st0" d="M-53.25-2.51c-0.71,3.72-0.62,2.48-1.9,7.49c-0.47,1.84-0.94,3.17-1.35,4.13c0,0-1.41,2.78-3.5,3.58 c-2.57,0.98-4.67,0.12-6.22-0.26c-1.05-0.26-2.32-0.49-3.29-0.65c0,0-1.96-0.28-3.75-0.04c-0.99,0.14-2.38,0.41-3.51,0.69 c-1.55,0.38-3.65,1.24-6.22,0.26c-2.1-0.8-3.5-3.58-3.5-3.58c-0.41-0.96-0.88-2.29-1.35-4.13c-1.28-5.01-1.2-3.77-1.9-7.49 c-0.71-3.72-0.93-8.64,3.5-11.12c0,0,6.16-3.77,11.52,1.86c0,0,1.28,1.2,1.33,4.96c0,0,0.18,2.97,0.53,3.77 c0.16,0.35,0.39,0.58,0.65,0.72c0,0,0.74,0.37,1.5-0.02c0.25-0.13,0.46-0.36,0.61-0.69c0.35-0.8,0.53-3.77,0.53-3.77 c0.04-3.77,1.33-4.96,1.33-4.96c5.36-5.63,11.52-1.86,11.52-1.86C-52.32-11.15-52.55-6.23-53.25-2.51z M-61.48,7.87 c-0.71,0-1.29,0.58-1.29,1.29c0,0.71,0.58,1.29,1.29,1.29c0.71,0,1.29-0.58,1.29-1.29C-60.19,8.45-60.77,7.87-61.48,7.87z"></path> <g> <path class="st1" d="M-38.78-14.14l-0.84-2.53h-1.08l2.74,8.05h1.25l2.75-8.05h-1.11l-0.86,2.53H-38.78z M-36.13-13.33l-0.79,2.32 c-0.18,0.53-0.3,1-0.42,1.47h-0.02c-0.12-0.48-0.25-0.97-0.41-1.46l-0.79-2.33H-36.13z"></path> <path class="st1" d="M-27.57-8.62v-3.37h3.9v3.37h1.05v-8.05h-1.05v3.78h-3.9v-3.78h-1.04v8.05H-27.57z"></path> <path class="st1" d="M-15.84-12.9h-3.13v-2.9h3.49v-0.87h-4.53v8.05h4.35v-0.87h-3.31v-2.54h3.13V-12.9z"></path> <path class="st1" d="M-12.02-14.14l-0.84-2.53h-1.08l2.74,8.05h1.25l2.75-8.05H-8.3l-0.86,2.53H-12.02z M-9.38-13.33l-0.79,2.32 c-0.18,0.53-0.3,1-0.42,1.47h-0.02c-0.12-0.48-0.25-0.97-0.41-1.46l-0.79-2.33H-9.38z"></path> <path class="st1" d="M-5.19-8.62h1.04v-7.18h3.44v-0.87h-4.48V-8.62z"></path> <path class="st1" d="M1.73-9.5h-2.45v0.88h5.96V-9.5H2.79v-7.17H1.73V-9.5z"></path> <path class="st1" d="M7.99-8.62v-3.37h3.9v3.37h1.05v-8.05h-1.05v3.78h-3.9v-3.78H6.95v8.05H7.99z"></path> <path class="st1" d="M17.26-16.67v3.42l-2.54,4.64h1.18l1.14-2.22c0.31-0.61,0.55-1.1,0.8-1.66h0.02c0.23,0.53,0.5,1.05,0.81,1.66 l1.16,2.22h1.18l-2.7-4.62v-3.43H17.26z"></path> <path class="st1" d="M26.98-16.67l-2.04,8.05h1.1l0.96-4.07c0.24-1,0.45-2.01,0.6-2.78h0.02c0.13,0.8,0.38,1.76,0.66,2.8 l1.08,4.06h1.09l0.98-4.09c0.23-0.96,0.44-1.91,0.56-2.76h0.02c0.17,0.88,0.39,1.78,0.65,2.78l1.06,4.06h1.06l-2.28-8.05H31.4 l-1.02,4.19c-0.25,1.03-0.42,1.82-0.53,2.63h-0.02c-0.14-0.8-0.32-1.59-0.62-2.63l-1.15-4.19H26.98z"></path> <path class="st1" d="M37.2-14.14l-0.84-2.53h-1.08l2.74,8.05h1.25l2.75-8.05h-1.11l-0.86,2.53H37.2z M39.84-13.33l-0.79,2.32 c-0.18,0.53-0.3,1-0.42,1.47h-0.02c-0.12-0.48-0.25-0.97-0.41-1.46l-0.79-2.33H39.84z"></path> <path class="st1" d="M44.87-16.67v3.42l-2.54,4.64h1.18l1.14-2.22c0.31-0.61,0.55-1.1,0.8-1.66h0.02c0.23,0.53,0.5,1.05,0.81,1.66 l1.16,2.22h1.18l-2.7-4.62v-3.43H44.87z"></path> <path class="st1" d="M54.74-9.5h-2.45v0.88h5.96V-9.5h-2.46v-7.17h-1.05V-9.5z"></path> <path class="st1" d="M66.52-12.56c0-2.77-1.68-4.24-3.74-4.24c-2.13,0-3.62,1.65-3.62,4.09c0,2.56,1.59,4.23,3.74,4.23 C65.1-8.49,66.52-10.17,66.52-12.56z M60.27-12.69c0-1.72,0.93-3.26,2.57-3.26c1.65,0,2.58,1.52,2.58,3.35 c0,1.6-0.84,3.27-2.57,3.27C61.13-9.34,60.27-10.93,60.27-12.69z"></path> <path class="st1" d="M71.88-15.41c0.47-0.29,1.15-0.53,1.86-0.53c1.06,0,1.68,0.56,1.68,1.37c0,0.75-0.43,1.18-1.52,1.6 c-1.31,0.47-2.13,1.15-2.13,2.28c0,1.25,1.04,2.19,2.6,2.19c0.82,0,1.42-0.19,1.78-0.39l-0.29-0.85c-0.26,0.14-0.8,0.38-1.53,0.38 c-1.1,0-1.52-0.66-1.52-1.21c0-0.75,0.49-1.12,1.6-1.55c1.36-0.53,2.05-1.18,2.05-2.37c0-1.24-0.92-2.32-2.82-2.32 c-0.78,0-1.63,0.23-2.05,0.51L71.88-15.41z"></path> <path class="st1" d="M79.77-8.62v-8.05h-1.04v8.05H79.77z"></path> <path class="st1" d="M83.92-9.5h-2.45v0.88h5.96V-9.5h-2.46v-7.17h-1.05V-9.5z"></path> </g> </symbol> <use xlink:href="#Nouveau_symbole_6" width="190.12" height="47.33" x="-95.06" y="-23.66" transform="matrix(1 0 0 -1 95.0623 23.6633)" style="overflow:visible;"></use> </svg> 