<?xml version="1.0" encoding="UTF-8"?> <!-- Generator: Adobe Illustrator 24.0.1, SVG Export Plug-In . SVG Version: 6.00 Build 0) --> <svg xmlns="http://www.w3.org/2000/svg" xmlns:xlink="http://www.w3.org/1999/xlink" id="Calque_1" x="0px" y="0px" viewBox="0 0 114.8 114.79" style="enable-background:new 0 0 114.8 114.79;" xml:space="preserve"> <style type="text/css"> .st0{fill:#87AF2C;} .st1{opacity:0.5;} .st2{fill:none;stroke:#FFFFFF;stroke-width:2;stroke-miterlimit:10;} .st3{fill:#FFFFFF;} .st4{fill:#EE7119;} .st5{opacity:0.5;clip-path:url(#SVGID_2_);} .st6{fill:#FFFFFF;stroke:#FFFFFF;stroke-width:0.75;stroke-miterlimit:10;} .st7{fill:none;stroke:#FFFFFF;stroke-width:2;stroke-linecap:round;stroke-linejoin:round;stroke-miterlimit:10;} .st8{fill:none;stroke:#FFFFFF;stroke-width:2;stroke-linecap:round;stroke-miterlimit:10;} .st9{opacity:0.5;fill:none;stroke:#FFFFFF;stroke-width:2;stroke-miterlimit:10;} .st10{opacity:0.5;fill:#FFFFFF;} .st11{clip-path:url(#SVGID_4_);} .st12{fill:none;stroke:#FFFFFF;stroke-miterlimit:10;} .st13{clip-path:url(#SVGID_6_);} </style> <symbol id="Nouveau_symbole_15_1_" viewBox="-48.96 -57.39 97.92 114.78"> <path class="st0" d="M48.96-40.53h-97.92v80.92c0,9.39,7.61,17.01,17.01,17.01h63.91c9.39,0,17.01-7.61,17.01-17.01V-40.53z"></path> <g class="st1"> <path class="st2" d="M43.52-41.15c-0.62,2.3-1.29,4.11-3.19,11.53c-1.15,4.49-2.31,7.76-3.3,10.1c0,0-3.44,6.79-8.57,8.75 C23-8.69,18.43-10,14.84-10.99"></path> <path class="st2" d="M-13.56-11.16c-3.68,1-8.45,2.58-14.21,0.38c-5.13-1.96-8.57-8.75-8.57-8.75c-1-2.34-2.15-5.6-3.3-10.1 c-1.91-7.42-2.58-9.23-3.19-11.53"></path> <circle class="st3" cx="24.96" cy="-22.47" r="3.18"></circle> </g> <rect x="-0.61" y="-90.11" transform="matrix(-1.836970e-16 1 -1 -1.836970e-16 -41.1466 -41.1461)" class="st3" width="1.22" height="97.92"></rect> <rect x="-7.82" y="-98.53" transform="matrix(-1.836970e-16 1 -1 -1.836970e-16 -49.5734 -49.5729)" class="st4" width="15.63" height="97.92"></rect> <path class="st3" d="M-24.47-46.36h1.91v-2.16h2.08v2.16h1.92v-6.17h-1.92v2.5h-2.08v-2.5h-1.91V-46.36z"></path> <path class="st3" d="M-16.61-46.36h5.11v-1.32h-3.2v-0.98h2.97v-1.26h-2.97v-1.22h3.29v-1.4h-5.21V-46.36z"></path> <path class="st3" d="M-5.89-51.51h-2.17l-0.3-1.02h-1.95l2.32,6.17h2.08l2.32-6.17h-2L-5.89-51.51z M-6.29-50.18l-0.68,2.22 l-0.67-2.22H-6.29z"></path> <path class="st3" d="M-2.29-46.36h1.91v-4.65h2.98v-1.52h-4.88V-46.36z"></path> <path class="st3" d="M3.28-46.36h5.8v-1.52H7.13v-4.65H5.22v4.65H3.28V-46.36z"></path> <path class="st3" d="M10.64-46.36h1.91v-2.16h2.08v2.16h1.92v-6.17h-1.92v2.5h-2.08v-2.5h-1.91V-46.36z"></path> <path class="st3" d="M17.88-46.36H20l1.24-2.08l1.25,2.08h2.11l-2.4-3.59v-2.58h-1.91v2.58L17.88-46.36z"></path> <path class="st2" d="M27.81,32.83c-0.42-1.35-1.4-2.28-2.37-3.24c-3.37-3.35-6.72-6.72-10.09-10.07c-0.36-0.36-0.51-0.71-0.51-1.22 c0.01-15.24,0.01-30.48,0.01-45.72c0-1.92-0.86-3.36-2.6-4.08C9.14-32.79,6-30.75,5.99-27.53C5.97-23.24,5.97-18.96,6-14.67 c0,0.54-0.16,0.66-0.67,0.66c-2.92-0.02-5.85-0.02-8.77,0c-0.51,0-0.63-0.14-0.63-0.63c0.02-4.22,0.01-8.43,0.01-12.65 c0-1.77-0.71-3.2-2.28-4.03c-2.96-1.56-6.63,0.26-6.64,3.95c-0.03,7.27-0.01,14.55-0.01,21.82c0,7.79-0.01,15.58,0.02,23.36 c0,0.66-0.21,1.11-0.67,1.57c-3.79,3.76-7.55,7.53-11.32,11.31c-1.26,1.26-1.65,2.8-1.15,4.49c0.51,1.71,1.71,2.75,3.45,3.08 c1.53,0.29,2.86-0.15,3.97-1.26c3.9-3.9,7.8-7.79,11.68-11.7c0.36-0.36,0.72-0.5,1.23-0.5c4.37,0.02,8.75,0.02,13.12,0 c0.49,0,0.82,0.15,1.16,0.49c3.87,3.89,7.75,7.78,11.64,11.65c2.03,2.02,5.08,1.84,6.81-0.37c0.4-0.52,0.6-1.13,0.85-1.72 C27.81,34.17,27.81,33.5,27.81,32.83z"></path> <path class="st2" d="M2.37,48.02c0.44-0.13,0.88-0.26,1.31-0.39c3.84-1.16,6.75-4.95,6.47-9.46c-0.24-3.97-3.32-7.6-7.26-8.37 C-2.37,28.76-7.22,32-8.15,37.27c-0.86,4.89,2.32,9.62,7.35,10.61c0.13,0.02,0.27,0,0.35,0.14C0.49,48.02,1.43,48.02,2.37,48.02z"></path> <path class="st3" d="M17.31,5.24c0.02-8.85-7.27-16.25-15.93-16.39c-8.91-0.15-16.7,6.82-16.8,16.31 c-0.1,8.92,7.34,16.42,16.19,16.44C9.91,21.62,17.28,14.34,17.31,5.24z M-1.74-7.25c0.87-0.01,1.56,0.23,2.15,0.71 c0.53,0.43,0.97,0.93,1.34,1.5c2.78,4.16,5.44,8.4,7.92,12.75c0.89,1.56,1.81,3.11,2.43,4.8c0.41,1.13,0.15,1.81-0.9,2.55 c-1.01,0.71-1.81,0.72-2.7-0.06c-0.65-0.57-1.24-1.21-1.82-1.86C3.61,9.73,0.77,6.13-2.04,2.5c-0.47-0.61-0.72-0.53-1.12,0 c-0.71,0.95-1.55,1.8-2.4,2.63c-1.08,1.06-1.78,1.19-2.88,0.5C-9.73,4.83-9.93,4.2-9.41,2.72c1.01-2.87,2.52-5.47,4.33-7.9 C-4.21-6.36-3.04-7.12-1.74-7.25z"></path> </symbol> <symbol id="Nouveau_symbole_16_6_" viewBox="-50.09 -57.39 100.18 120.06"> <path class="st0" d="M48.19-40.53h-97.92v80.92c0,9.39,7.61,17.01,17.01,17.01h63.91c9.39,0,17.01-7.61,17.01-17.01V-40.53z"></path> <g> <defs> <path id="SVGID_1_" d="M48.19-40.53h-97.92v80.92c0,9.39,7.61,17.01,17.01,17.01h63.91c9.39,0,17.01-7.61,17.01-17.01V-40.53z"></path> </defs> <clipPath id="SVGID_2_"> <use xlink:href="#SVGID_1_" style="overflow:visible;"></use> </clipPath> <g class="st5"> <path class="st2" d="M-50,32.08c4.69-0.4,12.34-0.75,19.59,0.24c6.38,0.87,15.27,2.64,22.55,4.42c9.96,2.43,23.4,7.98,39.92,1.69 c6.87-2.62,13.29-9.37,17.24-14.55"></path> </g> </g> <rect x="-1.41" y="-90.14" transform="matrix(-1.836970e-16 1 -1 -1.836970e-16 -41.9474 -40.4011)" class="st3" width="1.28" height="97.92"></rect> <rect x="-8.59" y="-98.53" transform="matrix(-1.836970e-16 1 -1 -1.836970e-16 -50.3463 -48.8)" class="st4" width="15.63" height="97.92"></rect> <path class="st3" d="M-44.96-51.49l1.82,0.11c0.04-0.29,0.12-0.52,0.24-0.67c0.2-0.25,0.48-0.38,0.84-0.38 c0.27,0,0.48,0.06,0.63,0.19s0.22,0.28,0.22,0.44c0,0.16-0.07,0.3-0.21,0.43s-0.47,0.25-0.98,0.36c-0.84,0.19-1.43,0.44-1.79,0.75 c-0.36,0.31-0.54,0.71-0.54,1.19c0,0.32,0.09,0.62,0.28,0.9c0.18,0.28,0.46,0.5,0.83,0.67s0.88,0.24,1.52,0.24 c0.79,0,1.39-0.15,1.8-0.44c0.41-0.29,0.66-0.76,0.74-1.4l-1.8-0.11c-0.05,0.28-0.15,0.48-0.3,0.61c-0.15,0.13-0.36,0.19-0.63,0.19 c-0.22,0-0.39-0.05-0.5-0.14c-0.11-0.09-0.17-0.21-0.17-0.34c0-0.1,0.05-0.19,0.14-0.27c0.09-0.08,0.3-0.16,0.64-0.23 c0.83-0.18,1.43-0.36,1.79-0.54c0.36-0.18,0.62-0.41,0.79-0.68c0.16-0.27,0.25-0.58,0.25-0.91c0-0.4-0.11-0.76-0.33-1.09 c-0.22-0.33-0.53-0.59-0.92-0.76c-0.39-0.17-0.89-0.26-1.49-0.26c-1.05,0-1.78,0.2-2.18,0.61S-44.91-52.11-44.96-51.49z"></path> <path class="st3" d="M-37.72-47.36h5.11v-1.32h-3.2v-0.98h2.97v-1.26h-2.97v-1.22h3.29v-1.4h-5.21V-47.36z"></path> <path class="st3" d="M-30.79-47.36h1.91v-4.65h2.98v-1.52h-4.88V-47.36z"></path> <path class="st3" d="M-24.34-47.36h4.72v-1.33h-2.8v-1.08h2.39v-1.25h-2.39v-2.52h-1.92V-47.36z"></path> <path class="st3" d="M-18.35-50.62h2.49v-1.33h-2.49V-50.62z"></path> <path class="st3" d="M-14.27-47.36h1.91v-6.17h-1.91V-47.36z"></path> <path class="st3" d="M-10.29-47.36h1.78l2.32-3.42v3.42h1.8v-6.17h-1.8l-2.31,3.39v-3.39h-1.79V-47.36z"></path> <path class="st3" d="M-2.42-47.36h4.72v-1.33h-2.8v-1.08h2.39v-1.25h-2.39v-2.52h-1.92V-47.36z"></path> <path class="st3" d="M4.01-47.36h1.91v-4.65H8.9v-1.52H4.01V-47.36z"></path> <path class="st3" d="M14.25-52.51h-2.17l-0.3-1.02H9.83l2.32,6.17h2.08l2.32-6.17h-2L14.25-52.51z M13.85-51.18l-0.68,2.22 l-0.67-2.22H13.85z"></path> <path class="st3" d="M16.82-47.36h5.8v-1.52h-1.95v-4.65h-1.91v4.65h-1.95V-47.36z"></path> <path class="st3" d="M24.25-47.36h1.91v-6.17h-1.91V-47.36z"></path> <path class="st3" d="M28.23-47.36h1.78l2.32-3.42v3.42h1.8v-6.17h-1.8l-2.31,3.39v-3.39h-1.79V-47.36z"></path> <path class="st3" d="M39.2-51.3v1.28h2.95v-2.63c-0.56-0.38-1.06-0.65-1.5-0.79c-0.43-0.14-0.95-0.21-1.54-0.21 c-0.73,0-1.33,0.13-1.79,0.38s-0.82,0.62-1.07,1.12c-0.25,0.49-0.38,1.06-0.38,1.7c0,0.67,0.14,1.26,0.42,1.76 c0.28,0.5,0.69,0.88,1.22,1.13c0.42,0.2,0.98,0.3,1.69,0.3c0.68,0,1.19-0.06,1.53-0.19c0.34-0.12,0.62-0.32,0.84-0.57 c0.22-0.26,0.39-0.59,0.5-0.99l-1.84-0.33c-0.08,0.23-0.2,0.41-0.38,0.54c-0.18,0.12-0.41,0.18-0.69,0.18c-0.42,0-0.75-0.14-1-0.44 c-0.25-0.29-0.37-0.75-0.37-1.38c0-0.67,0.13-1.15,0.38-1.43c0.25-0.29,0.6-0.43,1.05-0.43c0.21,0,0.42,0.03,0.61,0.09 c0.19,0.06,0.42,0.17,0.67,0.32v0.58H39.2z"></path> <path class="st2" d="M5.69,19.43c0.22,0,0.45,0.01,0.67,0.01c1.02,0,2.03-0.05,3.03-0.15"></path> <path class="st2" d="M-19.98-0.01"></path> <path class="st2" d="M9.38,19.29C22.75,17.96,33.14,7.9,33.14-4.3c0-13.11-11.99-23.74-26.78-23.74S-20.42-17.41-20.42-4.3 c0,0.81,0.05,1.61,0.13,2.4"></path> <ellipse class="st2" cx="6.36" cy="-4.3" rx="15.29" ry="13.56"></ellipse> <g> <path class="st6" d="M-20.09-4.15c-1.7,0.32-3.04,1.46-4.13,2.91c-0.42,0.57-0.95,1.34-0.19,1.93c0.77,0.6,1.31-0.02,1.81-0.65 c1.9-2.33,4.24-3.07,6.7-2.17c2.43,0.9,3.64,2.94,3.55,5.98c-0.05,1.57,0.42,1.89,2.06,1.25c2.17-0.85,4.16-0.6,5.88,0.9 c1.7,1.49,2.35,3.4,1.66,5.64c-0.5,1.62,0.29,1.87,1.72,1.79c4.23-0.21,7.08,3.06,6.11,6.88c-0.38,1.5-1.29,2.63-2.63,3.43 c-0.68,0.41-1.64,0.81-1.06,1.79c0.64,1.08,1.55,0.37,2.26-0.04c2.6-1.5,4.08-4.58,3.68-7.52c-0.44-3.24-2.66-5.79-5.94-6.49 c-1.34-0.28-1.8-0.68-1.89-2.14C-0.75,5.54-3.13,2.71-7.7,2.53c-1.16-0.05-2.15-0.01-2.58-1.57C-11.49-3.46-15.5-5.52-20.09-4.15z "></path> <path class="st6" d="M-8.78,9.39c-0.19,0.18-0.51,0.46-0.81,0.76c-7.15,7.33-19.24,18.61-26.39,25.94 c-0.6,0.62-1.5,1.29-0.57,2.12c0.9,0.8,1.58-0.14,2.16-0.73c7.15-7.32,19.24-18.61,26.38-25.94c0.51-0.52,1.2-1.01,0.7-1.87 C-7.6,9.2-8.09,9.1-8.78,9.39z"></path> <path class="st6" d="M-30.83,43.08c1.82-1.33,3.66-2.68,5.5-4.04c6.6-4.89,18.15-13.75,24.76-18.64c0.7-0.52,1.69-1.03,0.93-2.01 c-0.75-0.97-1.54-0.15-2.22,0.35c-8.15,6.03-21.25,16.01-29.4,22.04c-0.3,0.22-0.59,0.45-0.87,0.7c-0.46,0.42-0.66,0.94-0.25,1.46 C-31.97,43.48-31.4,43.34-30.83,43.08z"></path> <path class="st6" d="M-17.71,1.99c-0.17,0.2-0.46,0.52-0.72,0.86c-6.23,8.12-16.9,20.77-23.13,28.89 c-0.52,0.68-1.34,1.46-0.32,2.17c0.99,0.69,1.55-0.32,2.05-0.98c6.23-8.12,16.89-20.76,23.12-28.89c0.44-0.58,1.07-1.15,0.47-1.94 C-16.56,1.66-17.06,1.61-17.71,1.99z"></path> </g> <path class="st4" d="M-2.58,7.93C-3.02,7.92-3.2,8.17-3.14,8.94l-0.13,53.73h-8.21V9.24c-0.02-1.12,0-1.13-0.67-1.13 c-1.85-0.01-3.7-0.02-5.55-0.03c-0.4,0-0.79,0-1.15,0c3.45-6.02,6.9-12.03,10.32-18.01l0.07-0.1c0,0,2.59,1.03,4.94,3.91 c2.7,4.71,5.38,9.4,8.04,14.06"></path> <text transform="matrix(0 1 1 0 16.939 2.2832)" class="st3" style="font-family:'Arial-Black'; font-size:7.5391px;">PUSH</text> </symbol> <symbol id="Nouveau_symbole_17" viewBox="-48.96 -57.39 97.92 114.78"> <rect x="-0.62" y="-90.1" transform="matrix(-1.836970e-16 1 -1 -1.836970e-16 -41.138 -41.1373)" class="st3" width="1.24" height="97.92"></rect> <path class="st0" d="M48.96-40.53h-97.92v80.92c0,9.39,7.61,17.01,17.01,17.01h63.91c9.39,0,17.01-7.61,17.01-17.01V-40.53z"></path> <rect x="-7.82" y="-98.53" transform="matrix(-1.836970e-16 1 -1 -1.836970e-16 -49.5735 -49.5728)" class="st4" width="15.63" height="97.92"></rect> <path class="st2" d="M23.42-30.24c-7.95-1.38-25.36-3.75-45.29,0.02c-4.4,0.83-4.4,5.09-4.4,5.09V7.14c0,0-1.94,31.56,27.25,30.77 C30.18,37.12,27.8,7.41,27.8,7.41l0.04-31.25C27.84-23.84,28.71-29.33,23.42-30.24z"></path> <path class="st2" d="M-5.51,37.5c0,0-0.5,6.76,6.29,7.16s6.47-7.6,6.47-7.6"></path> <path class="st7" d="M-21.86,26.28l1.66,18.09c0,0,4.14-6.16,4.38-11.11"></path> <path class="st2" d="M-19.95,44.22l7.29,0.45c0,0,2.98-4.74,3.59-8"></path> <polyline class="st2" points="10.13,36.66 14.76,44.67 20.75,44.63 17.33,32.93 "></polyline> <path class="st8" d="M21.99,44.67c0,0,1.72-9.78,1.39-18.38"></path> <g class="st1"> <path class="st2" d="M8.11,26.11C5.49,27.3,2.15,28.84-2.26,27.9c-4.15-0.88-7.58-5.66-7.58-5.66c-1.04-1.66-2.31-4.02-3.72-7.31 c-3.85-8.97-3.32-6.68-5.73-13.42c-2.4-6.74-4.24-15.85,3.31-21.77c0,0,2.74-2.32,6.98-3.37"></path> <path class="st2" d="M-13.73-4.07c1.27,7.04,1.12,4.7,3.46,14.18c0.86,3.48,1.72,6.01,2.47,7.82c0,0,2.6,5.27,6.55,6.82 c4.84,1.9,6.43,2.05,9.36,1.36c1.99-0.46,6.78-2.62,8.61-2.9c0,0,1.65-0.22,3.76-0.22l0.26-26.07c-0.44,0-0.94-0.08-1.45-0.35 c-0.46-0.25-0.87-0.7-1.14-1.32c-0.65-1.51-0.93-7.12-0.93-7.12c-0.01-7.11-2.42-9.4-2.42-9.4C4.79-32-6.91-25-6.91-25 C-15.32-20.4-15-11.11-13.73-4.07z M1.62,15.69c1.35,0.01,2.43,1.12,2.41,2.46c-0.01,1.35-1.12,2.43-2.46,2.41 c-1.35-0.01-2.43-1.12-2.41-2.46S0.27,15.68,1.62,15.69z"></path> </g> </symbol> <symbol id="Nouveau_symbole_18" viewBox="-48.96 -57.39 97.92 114.79"> <rect x="-0.62" y="-90.11" transform="matrix(-1.836970e-16 1 -1 -1.836970e-16 -41.147 -41.1457)" class="st3" width="1.24" height="97.92"></rect> <path class="st0" d="M48.96-40.53h-97.92v80.92c0,9.39,7.61,17.01,17.01,17.01h63.91c9.39,0,17.01-7.61,17.01-17.01V-40.53z"></path> <path class="st9" d="M11.83-3.37c0.41,0.03,0.88-0.09,1.33-0.4c1.09-0.73,3.67-4.37,3.67-4.37c3.05-4.76,5.64-5.26,5.64-5.26 c11.3-2.9,16.14,6.8,16.14,6.8c3.67,6.68-0.53,12.77-4.39,16.94s-2.76,2.66-8.38,8.02c-2.06,1.96-3.73,3.29-5.01,4.18 c0,0-4,2.41-7.31,1.76c-4.06-0.8-6.03-3.57-7.71-5.28c-1.13-1.16-2.56-2.47-3.67-3.44c0,0-2.27-1.92-4.75-3.03 c-1.37-0.62-3.36-1.37-5.02-1.92C-9.89,9.87-13.25,9.3-15.74,6c-2.04-2.69-1.62-7.34-1.62-7.34c0.24-1.54,0.7-3.62,1.57-6.33 c2.35-7.4,1.47-5.75,3.53-11.05s5.69-11.74,13.3-11.37c0,0,10.84,0.11,13.18,11.54c0,0,0.68,2.55-2.26,7.37 c0,0-2.14,3.92-2.32,5.22C9.57-5.39,9.69-4.91,9.91-4.53C9.91-4.53,10.56-3.47,11.83-3.37z"></path> <circle class="st10" cx="14.68" cy="17.92" r="1.95"></circle> <path class="st3" d="M-30.24,23.14c0.97,1.81,1.9,3.9,3.23,5.76c1.51,2.11,3.23,4.06,5.18,5.78c0.39,0.35,0.92,0.99,1.48,0.33 c0.55-0.64-0.11-1.06-0.54-1.41c-3.62-2.98-6.09-6.81-8.05-11c-0.25-0.53-0.46-0.91-1.06-0.69 C-30.48,22.06-30.44,22.51-30.24,23.14z"></path> <path class="st3" d="M-20.08-24.8c-1.31,2.23-2.95,4.6-4.07,7.25c-1.27,3.01-2.24,6.13-2.81,9.36c-0.11,0.65-0.46,1.63,0.62,1.8 c1.05,0.17,1.06-0.82,1.16-1.5c0.83-5.85,3.33-11.01,6.54-15.87c0.4-0.61,0.67-1.09,0.05-1.59C-19.08-25.76-19.53-25.43-20.08-24.8 z"></path> <path class="st8" d="M-31.44-18.45c0,0,0.98-7.5,5.28-10.58"></path> <rect x="-7.82" y="-98.54" transform="matrix(-1.836970e-16 1 -1 -1.836970e-16 -49.5802 -49.579)" class="st4" width="15.63" height="97.92"></rect> <path class="st3" d="M-35.43,4.04l2.38,4.5l8.21,8.81c0,0,3.87,8.36,9.14,11.61l-0.65-4.86l3.85,7.28c0,0,2.8,4.27,6.64,6.35 l-0.64-4.32c0,0,3.73,11.73,19.81,13.64c0,0,6.08,0.62,3.47-4.84c0,0-1.93-4.18-4.26-6.51L0.94,31.94l9.88,1.08 c0,0-1.14-2.68-5.22-5.73l-13.56-2.85l8.6-0.83c0,0-1.8-2.89-7.05-5.04l-9.33-0.55l4.85-1.19c0,0-5.83-3.77-11.86-2.23L3.46,37.74 C3.46,37.74-4.63,34.88-35.43,4.04z"></path> </symbol> <symbol id="Nouveau_symbole_19_4_" viewBox="-48.96 -57.39 97.92 114.78"> <rect x="-0.61" y="-90.11" transform="matrix(-1.836970e-16 1 -1 -1.836970e-16 -41.1458 -41.147)" class="st3" width="1.22" height="97.92"></rect> <path class="st0" d="M48.96-40.53h-97.92v80.92c0,9.39,7.61,17.01,17.01,17.01h63.91c9.39,0,17.01-7.61,17.01-17.01V-40.53z"></path> <rect x="-7.81" y="-98.53" transform="matrix(-1.836970e-16 1 -1 -1.836970e-16 -49.5726 -49.5738)" class="st4" width="15.63" height="97.92"></rect> <path class="st3" d="M-21.33-46.36h3.17c0.69,0,1.21-0.16,1.55-0.49c0.34-0.33,0.52-0.8,0.52-1.4c0-0.62-0.19-1.11-0.56-1.46 c-0.37-0.35-0.95-0.53-1.72-0.53h-1.04v-2.29h-1.92V-46.36z M-19.41-48.99h0.47c0.37,0,0.63,0.06,0.77,0.19 c0.15,0.13,0.22,0.29,0.22,0.49c0,0.19-0.07,0.36-0.19,0.49s-0.37,0.2-0.73,0.2h-0.54V-48.99z"></path> <path class="st3" d="M-14.4-46.36h1.91v-4.65h2.98v-1.52h-4.88V-46.36z"></path> <path class="st3" d="M-7.89-46.36h1.91v-6.17h-1.91V-46.36z"></path> <path class="st3" d="M-0.12-51.51h-2.17l-0.3-1.02h-1.95l2.32,6.17h2.08l2.32-6.17h-2L-0.12-51.51z M-0.52-50.18l-0.68,2.22 l-0.67-2.22H-0.52z"></path> <path class="st3" d="M3.49-46.36h3.57c0.6,0,1.05-0.15,1.37-0.44C8.74-47.1,8.9-47.46,8.9-47.9c0-0.36-0.11-0.68-0.34-0.94 c-0.15-0.17-0.37-0.31-0.67-0.41c0.44-0.11,0.77-0.29,0.98-0.55c0.21-0.26,0.31-0.59,0.31-0.98c0-0.32-0.08-0.61-0.22-0.86 s-0.35-0.46-0.61-0.61c-0.16-0.09-0.4-0.16-0.72-0.2c-0.43-0.06-0.71-0.08-0.85-0.08H3.49V-46.36z M5.41-48.78h0.83 c0.3,0,0.5,0.05,0.62,0.15s0.17,0.25,0.17,0.44c0,0.18-0.06,0.32-0.17,0.42c-0.12,0.1-0.32,0.15-0.61,0.15H5.41V-48.78z M5.41-51.21h0.97c0.33,0,0.56,0.06,0.69,0.17s0.2,0.27,0.2,0.47c0,0.18-0.07,0.33-0.2,0.44c-0.13,0.11-0.37,0.17-0.7,0.17H5.41 V-51.21z"></path> <path class="st3" d="M10.88-46.36h1.91v-4.65h2.98v-1.52h-4.88V-46.36z"></path> <path class="st3" d="M17.31-46.36h5.11v-1.32h-3.2v-0.98h2.97v-1.26h-2.97v-1.22h3.29v-1.4h-5.21V-46.36z"></path> <path class="st9" d="M5.66,18.94c-0.01,1.47-0.21,2.93-0.46,4.26c-0.83,4.38-0.73,2.92-2.24,8.82c-0.56,2.16-1.11,3.74-1.59,4.86 c0,0-1.66,3.27-4.13,4.21c-3.03,1.16-5.5,0.14-7.32-0.31c-1.24-0.3-2.73-0.58-3.87-0.77c0,0-2.3-0.33-4.42-0.04 c-1.17,0.16-2.8,0.48-4.14,0.81c-1.83,0.45-4.29,1.47-7.32,0.31c-2.47-0.94-4.13-4.21-4.13-4.21c-0.48-1.13-1.04-2.7-1.59-4.86 c-1.51-5.9-1.41-4.44-2.24-8.82s-1.1-10.18,4.12-13.1c0,0,7.25-4.44,13.57,2.19c0,0,1.51,1.41,1.57,5.84c0,0,0.21,3.5,0.63,4.44 c0.18,0.41,0.47,0.68,0.76,0.84c0,0,0.87,0.43,1.76-0.03c0.29-0.15,0.55-0.43,0.72-0.82c0.42-0.94,0.63-4.44,0.63-4.44 c0.05-4.44,1.57-5.84,1.57-5.84C-7.39,6.93-1.67,8.81,0.33,9.72"></path> <circle class="st10" cx="-4.45" cy="35.45" r="1.53"></circle> <g> <path class="st2" d="M24.27,22.92c-2.79,1.26-6.34,2.9-11.02,1.9c-4.41-0.94-8.05-6.01-8.05-6.01c-1.1-1.77-2.45-4.27-3.95-7.77 C-2.86,1.5-2.3,3.93-4.85-3.23c-2.55-7.16-4.51-16.85,3.51-23.13c0,0,2.91-2.47,7.41-3.58"></path> <path class="st2" d="M1.05-9.16C2.4-1.68,2.25-4.17,4.72,5.91c0.91,3.7,1.83,6.39,2.63,8.32c0,0,2.77,5.6,6.96,7.25 c5.14,2.02,6.83,2.18,9.95,1.45c2.11-0.49,7.2-2.78,9.15-3.09c0,0,1.76-0.23,4-0.23l0.28-27.71c-0.47,0-1-0.09-1.54-0.37 c-0.49-0.26-0.92-0.74-1.21-1.41c-0.7-1.61-0.99-7.57-0.99-7.57c-0.01-7.56-2.57-9.99-2.57-9.99C20.74-38.84,8.3-31.41,8.3-31.41 C-0.64-26.52-0.3-16.64,1.05-9.16z M17.36,11.84c1.43,0.01,2.58,1.19,2.57,2.62s-1.19,2.58-2.62,2.57 c-1.43-0.01-2.58-1.19-2.57-2.62S15.93,11.83,17.36,11.84z"></path> </g> <path class="st3" d="M-31.98,3.51c-0.27-0.79-0.61-1.63-0.86-2.51c-0.4-1.4-0.48-2.83-0.01-4.23c0.7-2.1,2.15-3.38,4.32-3.79 c1.21-0.23,2.45-0.34,3.67-0.5c0.32-0.04,0.42,0.08,0.42,0.4c-0.01,1.6-0.01,3.2-0.01,4.79c0,0.13,0,0.25,0,0.3 c2.78-2.75,5.58-5.53,8.4-8.32c-2.8-2.78-5.63-5.58-8.46-8.39c0,0.25,0,0.54,0,0.82c0,1.32-0.01,2.64-0.01,3.97 c0,0.47,0,0.46-0.47,0.48c-2.24,0.05-4.4,0.45-6.36,1.62c-2.26,1.35-3.53,3.35-3.86,5.96c-0.29,2.33,0.33,4.47,1.36,6.53 C-33.31,1.68-32.66,2.66-31.98,3.51z"></path> </symbol> <symbol id="Nouveau_symbole_21" viewBox="-48.96 -57.39 97.92 114.78"> <rect x="-0.61" y="-90.11" transform="matrix(-1.836970e-16 1 -1 -1.836970e-16 -41.1458 -41.147)" class="st3" width="1.22" height="97.92"></rect> <path class="st0" d="M48.96-40.53h-97.92v80.92c0,9.39,7.61,17.01,17.01,17.01h63.91c9.39,0,17.01-7.61,17.01-17.01V-40.53z"></path> <rect x="-7.81" y="-98.53" transform="matrix(-1.836970e-16 1 -1 -1.836970e-16 -49.5726 -49.5738)" class="st4" width="15.63" height="97.92"></rect> <path class="st9" d="M5.66,18.94c-0.01,1.47-0.21,2.93-0.46,4.26c-0.83,4.38-0.73,2.92-2.24,8.82c-0.56,2.16-1.11,3.74-1.59,4.86 c0,0-1.66,3.27-4.13,4.21c-3.03,1.16-5.5,0.14-7.32-0.31c-1.24-0.3-2.73-0.58-3.87-0.77c0,0-2.3-0.33-4.42-0.04 c-1.17,0.16-2.8,0.48-4.14,0.81c-1.83,0.45-4.29,1.47-7.32,0.31c-2.47-0.94-4.13-4.21-4.13-4.21c-0.48-1.13-1.04-2.7-1.59-4.86 c-1.51-5.9-1.41-4.44-2.24-8.82s-1.1-10.18,4.12-13.1c0,0,7.25-4.44,13.57,2.19c0,0,1.51,1.41,1.57,5.84c0,0,0.21,3.5,0.63,4.44 c0.18,0.41,0.47,0.68,0.76,0.84c0,0,0.87,0.43,1.76-0.03c0.29-0.15,0.55-0.43,0.72-0.82c0.42-0.94,0.63-4.44,0.63-4.44 c0.05-4.44,1.57-5.84,1.57-5.84C-7.39,6.93-1.67,8.81,0.33,9.72"></path> <circle class="st10" cx="-4.45" cy="35.45" r="1.53"></circle> <path class="st2" d="M24.27,22.92c-2.79,1.26-6.34,2.9-11.02,1.9c-4.41-0.94-8.05-6.01-8.05-6.01c-1.1-1.77-2.45-4.27-3.95-7.77 C-2.86,1.5-2.3,3.93-4.85-3.23c-2.55-7.16-4.51-16.85,3.51-23.13c0,0,2.91-2.47,7.41-3.58"></path> <path class="st2" d="M1.05-9.16C2.4-1.68,2.25-4.17,4.72,5.91c0.91,3.7,1.83,6.39,2.63,8.32c0,0,2.77,5.6,6.96,7.25 c5.14,2.02,6.83,2.18,9.95,1.45c2.11-0.49,7.2-2.78,9.15-3.09c0,0,1.76-0.23,4-0.23l0.28-27.71c-0.47,0-1-0.09-1.54-0.37 c-0.49-0.26-0.92-0.74-1.21-1.41c-0.7-1.61-0.99-7.57-0.99-7.57c-0.01-7.56-2.57-9.99-2.57-9.99C20.74-38.84,8.3-31.41,8.3-31.41 C-0.64-26.52-0.3-16.64,1.05-9.16z M17.36,11.84c1.43,0.01,2.58,1.19,2.57,2.62s-1.19,2.58-2.62,2.57 c-1.43-0.01-2.58-1.19-2.57-2.62S15.93,11.83,17.36,11.84z"></path> <path class="st3" d="M-31.98,3.51c-0.27-0.79-0.61-1.63-0.86-2.51c-0.4-1.4-0.48-2.83-0.01-4.23c0.7-2.1,2.15-3.38,4.32-3.79 c1.21-0.23,2.45-0.34,3.67-0.5c0.32-0.04,0.42,0.08,0.42,0.4c-0.01,1.6-0.01,3.2-0.01,4.79c0,0.13,0,0.25,0,0.3 c2.78-2.75,5.58-5.53,8.4-8.32c-2.8-2.78-5.63-5.58-8.46-8.39c0,0.25,0,0.54,0,0.82c0,1.32-0.01,2.64-0.01,3.97 c0,0.47,0,0.46-0.47,0.48c-2.24,0.05-4.4,0.45-6.36,1.62c-2.26,1.35-3.53,3.35-3.86,5.96c-0.29,2.33,0.33,4.47,1.36,6.53 C-33.31,1.68-32.66,2.66-31.98,3.51z"></path> <g> <g> <path class="st3" d="M-20.27-46.06h3.31c0.72,0,1.26-0.17,1.62-0.51c0.36-0.34,0.54-0.83,0.54-1.46c0-0.65-0.2-1.16-0.59-1.53 c-0.39-0.37-0.99-0.55-1.79-0.55h-1.09v-2.39h-2V-46.06z M-18.27-48.8h0.49c0.38,0,0.65,0.07,0.81,0.2 c0.16,0.13,0.23,0.3,0.23,0.51c0,0.2-0.07,0.37-0.2,0.51s-0.39,0.21-0.76,0.21h-0.57V-48.8z"></path> <path class="st3" d="M-13.76-46.06h1.99v-4.86h3.11v-1.59h-5.1V-46.06z"></path> <path class="st3" d="M-7.68-46.06h2v-6.44h-2V-46.06z"></path> <path class="st3" d="M-0.3-51.43h-2.26l-0.31-1.06h-2.03l2.42,6.44h2.17l2.42-6.44H0.02L-0.3-51.43z M-0.71-50.04l-0.71,2.31 l-0.7-2.31H-0.71z"></path> <path class="st3" d="M2.75-46.06h3.73c0.62,0,1.1-0.15,1.43-0.46c0.33-0.31,0.5-0.69,0.5-1.14c0-0.38-0.12-0.71-0.36-0.98 c-0.16-0.18-0.39-0.32-0.69-0.43c0.46-0.11,0.8-0.3,1.02-0.57c0.22-0.27,0.33-0.61,0.33-1.02c0-0.33-0.08-0.63-0.23-0.9 c-0.16-0.27-0.37-0.48-0.64-0.63c-0.17-0.1-0.42-0.17-0.76-0.21c-0.45-0.06-0.75-0.09-0.89-0.09H2.75V-46.06z M4.75-48.58h0.87 c0.31,0,0.53,0.05,0.65,0.16c0.12,0.11,0.18,0.26,0.18,0.46c0,0.19-0.06,0.33-0.18,0.44c-0.12,0.11-0.33,0.16-0.63,0.16H4.75 V-48.58z M4.75-51.11h1.02c0.34,0,0.58,0.06,0.72,0.18s0.21,0.29,0.21,0.49c0,0.19-0.07,0.34-0.21,0.46 c-0.14,0.12-0.38,0.17-0.73,0.17H4.75V-51.11z"></path> <path class="st3" d="M9.74-46.06h1.99v-4.86h3.11v-1.59h-5.1V-46.06z"></path> <path class="st3" d="M15.74-46.06h5.34v-1.38h-3.34v-1.02h3.1v-1.31h-3.1v-1.27h3.44v-1.46h-5.43V-46.06z"></path> </g> </g> </symbol> <symbol id="Nouveau_symbole_22" viewBox="-48.96 -57.39 97.92 114.79"> <g id="XMLID_4_"> <g> <rect x="-0.62" y="-90.11" transform="matrix(-1.836970e-16 1 -1 -1.836970e-16 -41.147 -41.1457)" class="st3" width="1.24" height="97.92"></rect> <path class="st0" d="M48.96-40.53h-97.92v80.92c0,9.39,7.61,17.01,17.01,17.01h63.91c9.39,0,17.01-7.61,17.01-17.01V-40.53z"></path> <path class="st9" d="M11.83-3.37c0.41,0.03,0.88-0.09,1.33-0.4c1.09-0.73,3.67-4.37,3.67-4.37c3.05-4.76,5.64-5.26,5.64-5.26 c11.3-2.9,16.14,6.8,16.14,6.8c3.67,6.68-0.53,12.77-4.39,16.94s-2.76,2.66-8.38,8.02c-2.06,1.96-3.73,3.29-5.01,4.18 c0,0-4,2.41-7.31,1.76c-4.06-0.8-6.03-3.57-7.71-5.28c-1.13-1.16-2.56-2.47-3.67-3.44c0,0-2.27-1.92-4.75-3.03 c-1.37-0.62-3.36-1.37-5.02-1.92C-9.89,9.87-13.25,9.3-15.74,6c-2.04-2.69-1.62-7.34-1.62-7.34c0.24-1.54,0.7-3.62,1.57-6.33 c2.35-7.4,1.47-5.75,3.53-11.05s5.69-11.74,13.3-11.37c0,0,10.84,0.11,13.18,11.54c0,0,0.68,2.55-2.26,7.37 c0,0-2.14,3.92-2.32,5.22C9.57-5.39,9.69-4.91,9.91-4.53C9.91-4.53,10.56-3.47,11.83-3.37z"></path> <circle class="st10" cx="14.68" cy="17.92" r="1.95"></circle> <path class="st3" d="M-30.24,23.14c0.97,1.81,1.9,3.9,3.23,5.76c1.51,2.11,3.23,4.06,5.18,5.78c0.39,0.35,0.92,0.99,1.48,0.33 c0.55-0.64-0.11-1.06-0.54-1.41c-3.62-2.98-6.09-6.81-8.05-11c-0.25-0.53-0.46-0.91-1.06-0.69 C-30.48,22.06-30.44,22.51-30.24,23.14z"></path> <path class="st3" d="M-20.08-24.8c-1.31,2.23-2.95,4.6-4.07,7.25c-1.27,3.01-2.24,6.13-2.81,9.36c-0.11,0.65-0.46,1.63,0.62,1.8 c1.05,0.17,1.06-0.82,1.16-1.5c0.83-5.85,3.33-11.01,6.54-15.87c0.4-0.61,0.67-1.09,0.05-1.59 C-19.08-25.76-19.53-25.43-20.08-24.8z"></path> <path class="st8" d="M-31.44-18.45c0,0,0.98-7.5,5.28-10.58"></path> <rect x="-7.82" y="-98.54" transform="matrix(-1.836970e-16 1 -1 -1.836970e-16 -49.5802 -49.579)" class="st4" width="15.63" height="97.92"></rect> <path class="st3" d="M-35.43,4.04l2.38,4.5l8.21,8.81c0,0,3.87,8.36,9.14,11.61l-0.65-4.86l3.85,7.28c0,0,2.8,4.27,6.64,6.35 l-0.64-4.32c0,0,3.73,11.73,19.81,13.64c0,0,6.08,0.62,3.47-4.84c0,0-1.93-4.18-4.26-6.51L0.94,31.94l9.88,1.08 c0,0-1.14-2.68-5.22-5.73l-13.56-2.85l8.6-0.83c0,0-1.8-2.89-7.05-5.04l-9.33-0.55l4.85-1.19c0,0-5.83-3.77-11.86-2.23 L3.46,37.74C3.46,37.74-4.63,34.88-35.43,4.04z"></path> </g> </g> <g> <g> <path class="st3" d="M-28.33-46.06h1.99v-3.84c0-0.38-0.06-0.74-0.18-1.08c-0.12-0.34-0.3-0.63-0.56-0.89 c-0.25-0.25-0.52-0.43-0.8-0.53c-0.39-0.14-0.85-0.21-1.39-0.21c-0.31,0-0.66,0.02-1.03,0.06c-0.37,0.04-0.68,0.13-0.93,0.26 s-0.48,0.32-0.68,0.55c-0.21,0.24-0.35,0.49-0.42,0.74c-0.12,0.41-0.18,0.77-0.18,1.09v3.84h1.99v-3.93 c0-0.35,0.1-0.63,0.29-0.82c0.19-0.2,0.46-0.3,0.81-0.3c0.34,0,0.61,0.1,0.81,0.29c0.19,0.2,0.29,0.47,0.29,0.83V-46.06z"></path> <path class="st3" d="M-25.02-46.06h1.99v-4.86h3.11v-1.59h-5.1V-46.06z"></path> <path class="st3" d="M-19.93-46.06h6.05v-1.59h-2.03v-4.85h-1.99v4.85h-2.03V-46.06z"></path> <path class="st3" d="M-12.95-52.5v6.44h3.32c0.62,0,1.08-0.05,1.41-0.16c0.33-0.11,0.59-0.3,0.79-0.59 c0.2-0.29,0.3-0.63,0.3-1.04c0-0.36-0.08-0.67-0.23-0.93s-0.36-0.47-0.63-0.63c-0.17-0.1-0.4-0.19-0.7-0.25 c0.24-0.08,0.41-0.16,0.52-0.24c0.07-0.05,0.18-0.17,0.32-0.34c0.14-0.17,0.23-0.3,0.28-0.4l0.96-1.87h-2.25l-1.06,1.97 c-0.13,0.25-0.25,0.42-0.36,0.5c-0.14,0.1-0.31,0.15-0.49,0.15h-0.18v-2.62H-12.95z M-10.95-48.66h0.84 c0.09,0,0.27,0.03,0.53,0.09c0.13,0.03,0.24,0.09,0.32,0.2c0.08,0.11,0.13,0.23,0.13,0.38c0,0.21-0.07,0.37-0.2,0.48 c-0.13,0.11-0.38,0.17-0.74,0.17h-0.87V-48.66z"></path> <path class="st3" d="M-2.02-51.43h-2.26l-0.31-1.06h-2.03l2.42,6.44h2.17l2.42-6.44h-2.08L-2.02-51.43z M-2.43-50.04l-0.71,2.31 l-0.7-2.31H-2.43z"></path> <path class="st3" d="M4.03-46.06h1.99v-4.86h3.11v-1.59h-5.1V-46.06z"></path> <path class="st3" d="M10.11-46.06h2v-6.44h-2V-46.06z"></path> <path class="st3" d="M16.77-50.16v1.34h3.08v-2.75c-0.59-0.4-1.11-0.68-1.56-0.82c-0.45-0.14-0.99-0.22-1.61-0.22 c-0.76,0-1.39,0.13-1.87,0.39c-0.48,0.26-0.86,0.65-1.12,1.16c-0.26,0.52-0.4,1.11-0.4,1.78c0,0.7,0.15,1.31,0.43,1.83 c0.29,0.52,0.71,0.92,1.28,1.19c0.44,0.21,1.02,0.31,1.76,0.31c0.71,0,1.24-0.07,1.6-0.19c0.35-0.13,0.65-0.33,0.88-0.6 c0.23-0.27,0.41-0.61,0.53-1.03l-1.92-0.34c-0.08,0.24-0.21,0.43-0.4,0.56c-0.19,0.13-0.43,0.19-0.72,0.19 c-0.44,0-0.78-0.15-1.04-0.46c-0.26-0.3-0.39-0.78-0.39-1.44c0-0.7,0.13-1.2,0.39-1.49c0.26-0.3,0.63-0.45,1.1-0.45 c0.22,0,0.43,0.03,0.64,0.1s0.43,0.17,0.69,0.33v0.61H16.77z"></path> <path class="st3" d="M21.04-46.06h1.99v-2.25h2.18v2.25h2v-6.44h-2v2.61h-2.18v-2.61h-1.99V-46.06z"></path> <path class="st3" d="M28.07-46.06h6.05v-1.59h-2.03v-4.85H30.1v4.85h-2.03V-46.06z"></path> </g> </g> </symbol> <symbol id="Nouveau_symbole_23" viewBox="-50.09 -57.39 100.17 114.78"> <g> <path class="st0" d="M48.19-40.53h-97.92v80.92c0,9.39,7.61,17.01,17.01,17.01h63.91c9.39,0,17.01-7.61,17.01-17.01V-40.53z"></path> </g> <g class="st1"> <defs> <path id="SVGID_3_" class="st1" d="M48.19-40.53h-97.92v80.92c0,9.39,7.61,17.01,17.01,17.01h63.91 c9.39,0,17.01-7.61,17.01-17.01V-40.53z"></path> </defs> <clipPath id="SVGID_4_"> <use xlink:href="#SVGID_3_" style="overflow:visible;"></use> </clipPath> <g class="st11"> <path class="st3" d="M48.5,23.27c-2.53,3.31-9.23,11.33-16.8,14.22c-13.81,5.27-25.42,2.06-34.74-0.51 c-1.61-0.44-3.12-0.86-4.58-1.22c-7.57-1.85-16.46-3.59-22.65-4.44c-7.19-0.98-14.74-0.68-19.81-0.25l0.17,1.99 c4.97-0.42,12.36-0.72,19.37,0.24c6.13,0.84,14.94,2.56,22.44,4.4c1.43,0.35,2.93,0.76,4.52,1.2c9.61,2.65,21.56,5.95,35.99,0.45 c8.05-3.07,15.05-11.42,17.68-14.87L48.5,23.27z"></path> </g> </g> <g> <rect x="-1.41" y="-90.14" transform="matrix(-1.836970e-16 1 -1 -1.836970e-16 -41.9478 -40.4008)" class="st3" width="1.28" height="97.92"></rect> </g> <g> <rect x="-8.59" y="-98.53" transform="matrix(-1.836970e-16 1 -1 -1.836970e-16 -50.3467 -48.7996)" class="st4" width="15.63" height="97.92"></rect> </g> <g> <path class="st3" d="M9.29,18.29c-1.18,0.12-2.39,0.16-3.58,0.14l-0.04,2c1.27,0.03,2.56-0.02,3.82-0.15L9.29,18.29z"></path> </g> <g> <path class="st2" d="M-19.98-0.01"></path> </g> <g> <path class="st3" d="M6.36-29.04c-15.32,0-27.78,11.1-27.78,24.74c0,0.84,0.05,1.69,0.14,2.51l1.99-0.23 c-0.08-0.75-0.13-1.51-0.13-2.28c0-12.54,11.56-22.74,25.78-22.74S32.14-16.84,32.14-4.3c0,11.58-9.82,21.3-22.85,22.6l0.2,1.99 C23.54,18.88,34.14,8.31,34.14-4.3C34.14-17.94,21.68-29.04,6.36-29.04z"></path> </g> <g> <path class="st3" d="M6.36-18.86c-8.99,0-16.29,6.53-16.29,14.56s7.31,14.56,16.29,14.56S22.65,3.73,22.65-4.3 S15.34-18.86,6.36-18.86z M6.36,8.26C-1.52,8.26-7.94,2.62-7.94-4.3s6.41-12.56,14.29-12.56S20.65-11.23,20.65-4.3 S14.24,8.26,6.36,8.26z"></path> </g> <g> <path class="st3" d="M-20.09-4.15c-1.7,0.32-3.04,1.46-4.13,2.91c-0.42,0.57-0.95,1.34-0.19,1.93c0.77,0.6,1.31-0.02,1.81-0.65 c1.9-2.33,4.24-3.07,6.7-2.17c2.43,0.9,3.64,2.94,3.55,5.98c-0.05,1.57,0.42,1.89,2.06,1.25c2.17-0.85,4.16-0.6,5.88,0.9 c1.7,1.49,2.35,3.4,1.66,5.64c-0.5,1.62,0.29,1.87,1.72,1.79c4.23-0.21,7.08,3.06,6.11,6.88c-0.38,1.5-1.29,2.63-2.63,3.43 c-0.68,0.41-1.64,0.81-1.06,1.79c0.64,1.08,1.55,0.37,2.26-0.04c2.6-1.5,4.08-4.58,3.68-7.52c-0.44-3.24-2.66-5.79-5.94-6.49 c-1.34-0.28-1.8-0.68-1.89-2.14C-0.75,5.54-3.13,2.71-7.7,2.53c-1.16-0.05-2.15-0.01-2.58-1.57C-11.49-3.46-15.5-5.52-20.09-4.15z "></path> </g> <g> <path class="st3" d="M-17.35-4.94c-0.92,0-1.87,0.14-2.83,0.42c-1.61,0.31-3.03,1.3-4.34,3.05c-0.36,0.48-1.21,1.61-0.12,2.46 c1.08,0.84,1.87-0.13,2.34-0.7c1.79-2.2,3.96-2.91,6.28-2.05c2.28,0.84,3.39,2.73,3.31,5.62c-0.02,0.67,0.03,1.4,0.53,1.76 c0.53,0.37,1.33,0.14,2.05-0.15c2.08-0.82,3.93-0.54,5.49,0.84C-3,7.75-2.48,9.52-3.11,11.55c-0.25,0.81-0.22,1.36,0.08,1.76 c0.41,0.53,1.21,0.56,2.01,0.52c1.98-0.09,3.74,0.61,4.82,1.94c1,1.23,1.32,2.82,0.9,4.47c-0.35,1.36-1.17,2.44-2.46,3.2 l-0.2,0.12c-0.48,0.28-1.03,0.59-1.18,1.15c-0.08,0.32-0.02,0.67,0.2,1.03c0.23,0.39,0.52,0.63,0.87,0.72 c0.6,0.15,1.21-0.21,1.7-0.5l0.2-0.12c2.69-1.55,4.28-4.8,3.87-7.9c-0.47-3.48-2.86-6.09-6.24-6.8c-1.18-0.25-1.51-0.5-1.59-1.8 c-0.27-4.32-3.1-7.01-7.55-7.19l-0.15-0.01c-1.09-0.04-1.74-0.06-2.08-1.29c-0.6-2.19-1.86-3.87-3.65-4.86 C-14.69-4.63-15.98-4.94-17.35-4.94z M-23.81,0.56c-0.12,0-0.24-0.06-0.38-0.17c-0.38-0.3-0.32-0.64,0.26-1.41 c1.2-1.6,2.47-2.5,3.9-2.77l0.04-0.01c2.21-0.66,4.36-0.5,6.06,0.44c1.6,0.89,2.74,2.41,3.29,4.41c0.48,1.76,1.65,1.8,2.78,1.84 l0.15,0.01c4.09,0.16,6.59,2.53,6.83,6.48c0.11,1.74,0.79,2.19,2.18,2.48c3.06,0.65,5.22,3.01,5.65,6.17 c0.38,2.8-1.06,5.74-3.5,7.15l-0.21,0.13c-0.38,0.23-0.82,0.49-1.13,0.41c-0.15-0.04-0.28-0.16-0.4-0.37 C1.6,25.17,1.56,25.03,1.6,24.9c0.07-0.26,0.47-0.49,0.83-0.69l0.21-0.12c1.46-0.87,2.4-2.1,2.8-3.66 c0.48-1.87,0.1-3.74-1.05-5.13c-1.24-1.52-3.24-2.33-5.44-2.22c-0.5,0.02-1.18,0.03-1.38-0.24c-0.14-0.17-0.12-0.55,0.04-1.07 c0.71-2.3,0.1-4.39-1.77-6.03c-1.79-1.57-3.89-1.9-6.26-0.97c-0.89,0.35-1.22,0.32-1.34,0.23c-0.11-0.08-0.23-0.33-0.21-1.12 c0.1-3.2-1.21-5.4-3.8-6.35c-2.61-0.96-5.14-0.15-7.12,2.28C-23.32,0.34-23.57,0.56-23.81,0.56z"></path> </g> <g> <path class="st3" d="M-8.78,9.39c-0.19,0.18-0.51,0.46-0.81,0.76c-7.15,7.33-19.24,18.61-26.39,25.94 c-0.6,0.62-1.5,1.29-0.57,2.12c0.9,0.8,1.58-0.14,2.16-0.73c7.15-7.32,19.24-18.61,26.38-25.94c0.51-0.52,1.2-1.01,0.7-1.87 C-7.6,9.2-8.09,9.1-8.78,9.39z"></path> </g> <g> <path class="st3" d="M-8.09,8.85c-0.24,0-0.51,0.06-0.84,0.19l-0.11,0.07l-0.18,0.16C-9.4,9.45-9.64,9.67-9.86,9.9 c-3.57,3.66-8.46,8.38-13.19,12.96c-4.73,4.58-9.63,9.31-13.21,12.98l-0.2,0.19c-0.42,0.41-0.9,0.88-0.88,1.48 c0.01,0.35,0.18,0.68,0.52,0.98c1.08,0.96,1.96,0.01,2.49-0.55l0.19-0.19c3.52-3.61,8.34-8.26,12.99-12.77 c4.8-4.65,9.77-9.45,13.39-13.17l0.18-0.18c0.46-0.45,1.16-1.13,0.57-2.14C-7.15,9.22-7.48,8.85-8.09,8.85z M-8.57,9.71 c0.68-0.27,0.86,0.03,0.93,0.16c0.27,0.46,0.09,0.7-0.45,1.22l-0.19,0.19C-11.9,15-16.86,19.8-21.66,24.44 c-4.66,4.51-9.47,9.17-13.01,12.78l-0.2,0.21c-0.7,0.75-0.99,0.91-1.44,0.51c-0.18-0.16-0.27-0.31-0.27-0.44 c-0.01-0.28,0.35-0.63,0.66-0.93l0.21-0.21c3.57-3.66,8.46-8.39,13.19-12.96c4.73-4.58,9.62-9.31,13.2-12.97 C-9.11,10.2-8.89,10-8.71,9.84L-8.57,9.71z"></path> </g> <g> <path class="st3" d="M-30.83,43.08c1.82-1.33,3.66-2.68,5.5-4.04c6.6-4.89,18.15-13.75,24.76-18.64c0.7-0.52,1.69-1.03,0.93-2.01 c-0.75-0.97-1.54-0.15-2.22,0.35c-8.15,6.03-21.25,16.01-29.4,22.04c-0.3,0.22-0.59,0.45-0.87,0.7c-0.46,0.42-0.66,0.94-0.25,1.46 C-31.97,43.48-31.4,43.34-30.83,43.08z"></path> </g> <g> <path class="st3" d="M-0.41,17.56c-0.54,0-1.02,0.37-1.44,0.7l-0.23,0.18c-4.12,3.04-9.58,7.16-14.86,11.14 c-5.17,3.89-10.51,7.92-14.54,10.91c-0.31,0.23-0.61,0.46-0.9,0.72c-0.67,0.61-0.78,1.35-0.29,1.97c0.67,0.86,1.64,0.41,2,0.25 l0.07-0.04l1.81-1.33c1.23-0.9,2.46-1.8,3.69-2.72c3.27-2.42,7.82-5.87,12.22-9.21c4.52-3.42,9.19-6.96,12.53-9.44l0.23-0.17 c0.48-0.34,1.02-0.72,1.11-1.31c0.05-0.34-0.06-0.7-0.34-1.06c-0.27-0.35-0.58-0.54-0.92-0.59C-0.31,17.56-0.36,17.56-0.41,17.56z M-31.66,42.94c-0.2,0-0.32-0.09-0.42-0.22c-0.1-0.12-0.35-0.45,0.21-0.96c0.26-0.24,0.55-0.46,0.84-0.67 c4.04-2.99,9.38-7.01,14.55-10.91c5.28-3.98,10.74-8.09,14.85-11.13l0.25-0.19c0.35-0.27,0.75-0.58,1.03-0.54 c0.14,0.02,0.28,0.12,0.42,0.3c0.15,0.19,0.21,0.35,0.19,0.48c-0.04,0.28-0.44,0.56-0.8,0.81l-0.25,0.18 c-3.34,2.48-8.02,6.02-12.54,9.44c-4.4,3.34-8.96,6.78-12.22,9.2c-1.23,0.91-2.46,1.81-3.69,2.71l-1.78,1.31 C-31.3,42.88-31.51,42.94-31.66,42.94z"></path> </g> <g> <path class="st3" d="M-17.71,1.99c-0.17,0.2-0.46,0.52-0.72,0.86c-6.23,8.12-16.9,20.77-23.13,28.89 c-0.52,0.68-1.34,1.46-0.32,2.17c0.99,0.69,1.55-0.32,2.05-0.98c6.23-8.12,16.89-20.76,23.12-28.89c0.44-0.58,1.07-1.15,0.47-1.94 C-16.56,1.66-17.06,1.61-17.71,1.99z"></path> </g> <g> <path class="st3" d="M-16.92,1.36c-0.27,0-0.59,0.08-0.98,0.3L-18,1.75l-0.16,0.19c-0.17,0.19-0.37,0.43-0.56,0.68 c-3.11,4.05-7.4,9.32-11.54,14.42c-4.16,5.11-8.46,10.4-11.58,14.47l-0.17,0.22c-0.37,0.46-0.78,0.98-0.7,1.58 c0.05,0.35,0.26,0.65,0.64,0.91c1.18,0.82,1.95-0.22,2.41-0.84l0.16-0.22c3.07-4,7.29-9.19,11.38-14.21 c4.22-5.19,8.58-10.55,11.74-14.67l0.16-0.2c0.4-0.5,1.02-1.26,0.31-2.19C-16.1,1.65-16.42,1.36-16.92,1.36z M-17.47,2.28 c0.65-0.35,0.85-0.07,0.94,0.04c0.32,0.42,0.17,0.68-0.3,1.27L-17,3.81c-3.15,4.12-7.51,9.47-11.72,14.66 c-4.09,5.03-8.32,10.23-11.39,14.23l-0.17,0.23c-0.61,0.82-0.87,1.02-1.37,0.67c-0.2-0.14-0.31-0.27-0.32-0.41 c-0.04-0.27,0.27-0.66,0.54-1l0.18-0.23c3.11-4.06,7.41-9.34,11.57-14.45c4.15-5.1,8.44-10.38,11.56-14.44 c0.18-0.24,0.38-0.46,0.53-0.64L-17.47,2.28z"></path> </g> <g> <path class="st3" d="M28.2,19.79L6.24-5.26l1.43,33.31l4.08-4.16l10.43,30l14.96-6.36c0,0-15.21-27.78-14.75-27.99L28.2,19.79z"></path> </g> <g> <path class="st0" d="M8.93,10.4l1.12,2.72c0.24,0.59,0.57,0.98,0.97,1.16c0.4,0.18,0.86,0.16,1.38-0.05 c0.53-0.22,0.89-0.55,1.06-1c0.17-0.45,0.12-1-0.15-1.66l-0.37-0.9l1.97-0.81l-0.67-1.64L8.93,10.4z M11.86,11.11l0.17,0.4 c0.13,0.32,0.17,0.56,0.11,0.73c-0.06,0.17-0.17,0.29-0.34,0.36c-0.17,0.07-0.33,0.07-0.49,0.01c-0.16-0.06-0.3-0.25-0.43-0.55 l-0.19-0.47L11.86,11.11z"></path> </g> <g> <path class="st0" d="M12.58,19.29l0.67,1.63l3.16-1.3c0.31-0.13,0.59-0.3,0.83-0.51s0.42-0.46,0.54-0.76 c0.12-0.29,0.18-0.57,0.17-0.84c-0.01-0.37-0.11-0.77-0.29-1.22c-0.11-0.26-0.24-0.53-0.4-0.82s-0.34-0.52-0.53-0.68 c-0.19-0.16-0.42-0.29-0.69-0.37c-0.27-0.09-0.52-0.12-0.75-0.1c-0.38,0.04-0.7,0.11-0.96,0.22l-3.16,1.3l0.67,1.63l3.23-1.33 c0.29-0.12,0.55-0.13,0.78-0.04c0.23,0.09,0.4,0.28,0.52,0.57c0.12,0.28,0.13,0.54,0.03,0.76c-0.09,0.23-0.29,0.4-0.58,0.52 L12.58,19.29z"></path> </g> <g> <path class="st0" d="M17.16,20.35l0.54,1.6c0.27-0.07,0.49-0.08,0.66-0.03c0.28,0.08,0.49,0.28,0.62,0.59 c0.1,0.23,0.11,0.44,0.06,0.61c-0.06,0.17-0.16,0.29-0.3,0.35c-0.14,0.06-0.28,0.05-0.44-0.03c-0.16-0.08-0.38-0.31-0.65-0.71 c-0.46-0.65-0.88-1.08-1.27-1.27c-0.39-0.2-0.8-0.21-1.21-0.04c-0.27,0.11-0.5,0.3-0.67,0.55s-0.27,0.57-0.28,0.95 c-0.01,0.37,0.1,0.84,0.33,1.39c0.28,0.68,0.62,1.14,1.01,1.39c0.4,0.25,0.88,0.3,1.46,0.14l-0.54-1.58 c-0.26,0.06-0.46,0.04-0.63-0.04c-0.16-0.09-0.29-0.25-0.39-0.48c-0.08-0.19-0.1-0.35-0.06-0.48c0.04-0.13,0.12-0.22,0.24-0.27 c0.08-0.03,0.18-0.03,0.28,0.03c0.1,0.05,0.24,0.2,0.42,0.47c0.45,0.65,0.81,1.1,1.1,1.35c0.29,0.24,0.57,0.39,0.86,0.43 c0.29,0.04,0.58,0.01,0.87-0.11c0.34-0.14,0.61-0.36,0.82-0.67c0.21-0.31,0.32-0.66,0.33-1.06c0.01-0.4-0.09-0.85-0.3-1.37 c-0.37-0.9-0.8-1.45-1.29-1.66C18.24,20.19,17.71,20.18,17.16,20.35z"></path> </g> <g> <path class="st0" d="M15.97,27.53l0.67,1.64l1.85-0.76l0.74,1.79l-1.85,0.76l0.67,1.64l5.3-2.18l-0.67-1.64l-2.14,0.88l-0.74-1.79 l2.14-0.88l-0.67-1.64L15.97,27.53z"></path> </g> <g> <g> <path class="st3" d="M-40.38-50.37l1.89,0.12c0.04-0.31,0.12-0.54,0.25-0.7c0.2-0.26,0.5-0.39,0.88-0.39 c0.28,0,0.5,0.07,0.66,0.2c0.15,0.13,0.23,0.29,0.23,0.46c0,0.17-0.07,0.32-0.22,0.45c-0.15,0.13-0.49,0.26-1.02,0.37 c-0.87,0.2-1.5,0.46-1.87,0.78c-0.38,0.32-0.56,0.74-0.56,1.24c0,0.33,0.1,0.64,0.29,0.94c0.19,0.29,0.48,0.53,0.87,0.69 c0.39,0.17,0.91,0.25,1.58,0.25c0.82,0,1.45-0.15,1.88-0.46c0.43-0.3,0.69-0.79,0.77-1.46l-1.88-0.11 c-0.05,0.29-0.15,0.5-0.31,0.63c-0.16,0.13-0.38,0.2-0.66,0.2c-0.23,0-0.41-0.05-0.52-0.15s-0.18-0.22-0.18-0.36 c0-0.1,0.05-0.2,0.15-0.28c0.09-0.09,0.32-0.16,0.67-0.24c0.87-0.19,1.49-0.38,1.87-0.57c0.38-0.19,0.65-0.43,0.82-0.71 c0.17-0.28,0.26-0.6,0.26-0.95c0-0.41-0.11-0.79-0.34-1.14c-0.23-0.35-0.55-0.61-0.96-0.79s-0.93-0.27-1.55-0.27 c-1.1,0-1.85,0.21-2.28,0.63S-40.33-51.02-40.38-50.37z"></path> <path class="st3" d="M-33.54-46.06h5.34v-1.38h-3.34v-1.02h3.1v-1.31h-3.1v-1.27h3.44v-1.46h-5.43V-46.06z"></path> <path class="st3" d="M-27.04-46.06h1.99v-4.86h3.11v-1.59h-5.1V-46.06z"></path> <path class="st3" d="M-21.03-46.06h4.92v-1.38h-2.92v-1.13h2.5v-1.3h-2.5v-2.63h-2V-46.06z"></path> <path class="st3" d="M-15.49-49.46h2.6v-1.38h-2.6V-49.46z"></path> <path class="st3" d="M-11.96-46.06h2v-6.44h-2V-46.06z"></path> <path class="st3" d="M-8.52-46.06h1.86l2.43-3.56v3.56h1.88v-6.44h-1.88l-2.41,3.54v-3.54h-1.87V-46.06z"></path> <path class="st3" d="M-1.03-46.06h4.92v-1.38H0.97v-1.13h2.5v-1.3h-2.5v-2.63h-2V-46.06z"></path> <path class="st3" d="M4.97-46.06h1.99v-4.86h3.11v-1.59h-5.1V-46.06z"></path> <path class="st3" d="M14.93-51.43h-2.26l-0.31-1.06h-2.03l2.42,6.44h2.17l2.42-6.44h-2.08L14.93-51.43z M14.52-50.04l-0.71,2.31 l-0.7-2.31H14.52z"></path> <path class="st3" d="M16.9-46.06h6.05v-1.59h-2.03v-4.85h-1.99v4.85H16.9V-46.06z"></path> <path class="st3" d="M23.93-46.06h2v-6.44h-2V-46.06z"></path> <path class="st3" d="M27.37-46.06h1.86l2.43-3.56v3.56h1.88v-6.44h-1.88l-2.41,3.54v-3.54h-1.87V-46.06z"></path> <path class="st3" d="M38.09-50.16v1.34h3.08v-2.75c-0.59-0.4-1.11-0.68-1.56-0.82c-0.45-0.14-0.99-0.22-1.61-0.22 c-0.76,0-1.39,0.13-1.87,0.39c-0.48,0.26-0.86,0.65-1.12,1.16c-0.26,0.52-0.4,1.11-0.4,1.78c0,0.7,0.15,1.31,0.43,1.83 c0.29,0.52,0.71,0.92,1.28,1.19c0.44,0.21,1.02,0.31,1.76,0.31c0.71,0,1.24-0.07,1.6-0.19c0.35-0.13,0.65-0.33,0.88-0.6 c0.23-0.27,0.41-0.61,0.53-1.03l-1.92-0.34c-0.08,0.24-0.21,0.43-0.4,0.56c-0.19,0.13-0.43,0.19-0.72,0.19 c-0.44,0-0.78-0.15-1.04-0.46c-0.26-0.3-0.39-0.78-0.39-1.44c0-0.7,0.13-1.2,0.39-1.49c0.26-0.3,0.63-0.45,1.1-0.45 c0.22,0,0.43,0.03,0.64,0.1s0.43,0.17,0.69,0.33v0.61H38.09z"></path> </g> </g> </symbol> <symbol id="Nouveau_symbole_24" viewBox="-48.96 -57.39 97.92 114.78"> <g> <g> <rect x="-0.62" y="-90.1" transform="matrix(-1.836970e-16 1 -1 -1.836970e-16 -41.138 -41.1373)" class="st3" width="1.24" height="97.92"></rect> </g> <g> <path class="st0" d="M48.96-40.53h-97.92v80.92c0,9.39,7.61,17.01,17.01,17.01h63.91c9.39,0,17.01-7.61,17.01-17.01V-40.53z"></path> </g> <g> <rect x="-7.82" y="-98.53" transform="matrix(-1.836970e-16 1 -1 -1.836970e-16 -49.5735 -49.5728)" class="st4" width="15.63" height="97.92"></rect> </g> <g> <path class="st3" d="M-0.62-33.24c-7.7,0-15.25,0.68-22.43,2.04c-4.13,0.78-5.21,4.31-5.21,6.07V7.14 C-28.3,7.7-29.1,22.4-20.12,31.68c4.86,5.02,11.63,7.45,20.14,7.22c8.79-0.24,15.68-3.07,20.48-8.41 c8.31-9.25,7.35-22.61,7.3-23.17l0.04-31.1c0.33-2.26-0.36-6.61-5.25-7.46l0,0C14.84-32.57,7.03-33.24-0.62-33.24z M-1.08,36.92 c-7.43,0-13.35-2.23-17.6-6.63c-8.37-8.66-7.59-22.95-7.58-23.1l0-32.33c0-0.35,0.14-3.45,3.59-4.11 c14.08-2.66,29.61-2.67,44.93-0.02l0,0c4.17,0.72,3.67,4.8,3.6,5.26l-0.01,0.15L25.8,7.41c0.01,0.21,0.94,13.16-6.8,21.77 c-4.42,4.91-10.82,7.51-19.04,7.74C-0.39,36.92-0.74,36.92-1.08,36.92z"></path> </g> <g> <path class="st3" d="M7.25,37.01l-2,0.08c0,0.04,0.1,3.54-1.8,5.4c-0.89,0.87-2.08,1.25-3.61,1.16c-1.73-0.1-3.07-0.67-3.97-1.7 c-1.56-1.78-1.39-4.36-1.39-4.38l-1.99-0.15c-0.01,0.14-0.23,3.44,1.88,5.85c1.27,1.45,3.07,2.25,5.35,2.38 c2.13,0.12,3.84-0.46,5.14-1.74C7.4,41.42,7.26,37.19,7.25,37.01z"></path> </g> <g> <path class="st3" d="M-22.86,25.28c-0.03,0-0.06,0-0.09,0c-0.55,0.05-0.95,0.54-0.9,1.09l1.66,18.09 c0.04,0.42,0.34,0.77,0.75,0.88c0.41,0.11,0.84-0.06,1.08-0.41c0.18-0.26,4.3-6.45,4.55-11.62c0.03-0.55-0.4-1.02-0.95-1.05 c-0.56-0.01-1.02,0.4-1.05,0.95c-0.13,2.69-1.52,5.82-2.67,7.98l-1.38-15C-21.91,25.67-22.35,25.28-22.86,25.28z"></path> </g> <g> <path class="st3" d="M-10.05,36.48c-0.45,2.44-2.39,5.88-3.15,7.15l-6.68-0.41l-1.57,2.12l9.32,0.36l0.32-0.5 c0.13-0.2,3.09-4.94,3.72-8.35L-10.05,36.48z"></path> </g> <g> <polygon class="st3" points="17.29,32.65 15.37,33.21 18.41,43.64 14.33,43.66 10,36.16 8.27,37.16 13.18,45.67 21.08,45.62 "></polygon> </g> <g> <path class="st3" d="M22.38,25.28c-0.01,0-0.03,0-0.04,0c-0.55,0.02-0.98,0.49-0.96,1.04c0.33,8.4-1.35,18.07-1.37,18.17 c-0.1,0.54,0.27,1.06,0.81,1.16c0.54,0.1,1.06-0.27,1.16-0.81c0.07-0.4,1.74-9.98,1.4-18.6C23.36,25.71,22.91,25.28,22.38,25.28z "></path> </g> <g class="st1"> <g> <path class="st3" d="M-11.25-24.6c-4.41,1.1-7.26,3.48-7.38,3.58c-9.19,7.2-4.98,18.99-3.6,22.87c1.42,3.99,1.83,4.84,2.71,6.71 c0.61,1.29,1.45,3.06,3.04,6.77c1.25,2.92,2.53,5.43,3.79,7.45c0.19,0.26,3.74,5.15,8.22,6.11c4.67,0.99,8.26-0.62,10.88-1.8 l0.11-0.05L5.7,25.2l-0.11,0.05c-2.5,1.13-5.62,2.53-9.64,1.67c-3.71-0.79-6.94-5.22-6.98-5.26c-1.17-1.88-2.4-4.3-3.61-7.13 c-1.61-3.74-2.45-5.53-3.07-6.84c-0.86-1.81-1.25-2.63-2.63-6.53c-3.48-9.76-2.53-16.32,2.98-20.65 c0.05-0.04,2.66-2.21,6.6-3.19L-11.25-24.6z"></path> </g> <g> <g> <path class="st3" d="M-0.04-28.22c-5.33,0-9.31,2.32-9.38,2.36c-10.24,5.6-8.02,17.92-7.29,21.97 c0.75,4.17,1.01,5.08,1.58,7.07c0.39,1.37,0.93,3.26,1.89,7.17c0.76,3.09,1.61,5.77,2.52,7.97c0.14,0.29,2.85,5.69,7.11,7.37 c4.84,1.9,6.7,2.16,9.96,1.4c0.97-0.23,2.47-0.79,4.06-1.39c1.68-0.64,3.59-1.36,4.48-1.5l0,0c0,0,1.61-0.19,3.6-0.21l0.99,0 l0.28-28.07l-1.01,0c0,0,0,0,0,0c-0.36,0-0.68-0.08-0.97-0.23c-0.28-0.15-0.52-0.44-0.69-0.84c-0.42-0.98-0.75-4.68-0.85-6.77 c-0.01-7.28-2.45-9.81-2.73-10.07C8.97-26.84,4.07-28.22-0.04-28.22z M3.37,25.49c-1.53,0-3.18-0.46-6.25-1.67 c-3.54-1.39-6-6.28-6.02-6.33c-0.85-2.04-1.66-4.63-2.4-7.62c-0.97-3.95-1.51-5.85-1.91-7.24c-0.55-1.92-0.8-2.8-1.53-6.87l0,0 c-1.84-10.2,0.17-16.52,6.32-19.88c0.48-0.28,11.18-6.45,20.51,3.54c0.05,0.05,2.13,2.24,2.15,8.72 c0.03,0.64,0.31,5.89,1.01,7.52c0.36,0.82,0.9,1.45,1.59,1.81c0.29,0.15,0.59,0.27,0.91,0.35l-0.24,24.2 c-1.65,0.05-2.84,0.21-2.9,0.21c-1.12,0.18-2.96,0.87-4.9,1.6c-1.46,0.55-2.96,1.12-3.81,1.32 C4.96,25.36,4.18,25.49,3.37,25.49z M-0.41,14.69c-1.88,0-3.42,1.52-3.44,3.4c-0.01,0.92,0.34,1.79,0.98,2.44 c0.64,0.66,1.5,1.02,2.42,1.03C0.46,21.6,1.34,21.23,2,20.58c0.66-0.64,1.02-1.5,1.03-2.42s-0.34-1.79-0.98-2.44 c-0.64-0.66-1.5-1.02-2.42-1.03l0,0C-0.39,14.69-0.4,14.69-0.41,14.69z M-0.41,19.57c0,0-0.01,0-0.02,0 c-0.38,0-0.74-0.16-1.01-0.43c-0.27-0.27-0.42-0.64-0.41-1.02c0.01-0.79,0.65-1.42,1.44-1.42c0.01,0,0.01,0,0.02,0l0,0 c0.38,0,0.74,0.16,1.01,0.43c0.27,0.27,0.42,0.64,0.41,1.02s-0.16,0.74-0.43,1.01C0.33,19.42-0.03,19.57-0.41,19.57z"></path> </g> </g> </g> </g> <g> <g> <path class="st3" d="M-18.04-46.06h1.86l2.43-3.56v3.56h1.88v-6.44h-1.88l-2.41,3.54v-3.54h-1.87V-46.06z"></path> <path class="st3" d="M-10.8-49.28c0,1.05,0.29,1.87,0.88,2.46c0.59,0.58,1.4,0.88,2.45,0.88c1.07,0,1.9-0.29,2.48-0.87 c0.58-0.57,0.87-1.38,0.87-2.42c0-0.75-0.13-1.37-0.38-1.85c-0.25-0.48-0.62-0.86-1.1-1.13c-0.48-0.27-1.08-0.4-1.79-0.4 c-0.73,0-1.33,0.12-1.8,0.35c-0.48,0.23-0.86,0.6-1.16,1.1C-10.66-50.66-10.8-50.03-10.8-49.28z M-8.81-49.29 c0-0.65,0.12-1.12,0.36-1.4c0.24-0.29,0.57-0.43,0.99-0.43c0.43,0,0.76,0.14,0.99,0.42c0.23,0.28,0.35,0.78,0.35,1.5 c0,0.61-0.12,1.05-0.37,1.33c-0.25,0.28-0.58,0.42-1,0.42c-0.4,0-0.72-0.14-0.97-0.43C-8.69-48.16-8.81-48.63-8.81-49.29z"></path> <path class="st3" d="M-3.08-46.06h2.62l1.01-3.92l1,3.92h2.62v-6.44H2.54v4.91L1.28-52.5h-1.48l-1.25,4.91v-4.91h-1.63V-46.06z"></path> <path class="st3" d="M9.4-51.43H7.14L6.83-52.5H4.79l2.42,6.44h2.17l2.42-6.44H9.72L9.4-51.43z M8.99-50.04l-0.71,2.31l-0.7-2.31 H8.99z"></path> <path class="st3" d="M12.46-46.06h2.96c0.58,0,1.05-0.08,1.41-0.24c0.36-0.16,0.66-0.39,0.89-0.68c0.23-0.3,0.4-0.64,0.51-1.03 s0.16-0.81,0.16-1.25c0-0.69-0.08-1.22-0.23-1.6c-0.16-0.38-0.38-0.7-0.65-0.95c-0.28-0.26-0.58-0.43-0.9-0.51 c-0.44-0.12-0.83-0.18-1.19-0.18h-2.96V-46.06z M14.46-47.51v-3.52h0.49c0.42,0,0.71,0.05,0.89,0.14s0.31,0.25,0.41,0.48 c0.1,0.23,0.15,0.6,0.15,1.12c0,0.68-0.11,1.15-0.33,1.4s-0.59,0.38-1.11,0.38H14.46z"></path> </g> </g> </symbol> <symbol id="Nouveau_symbole_25" viewBox="-50.09 -57.39 100.17 114.78"> <g> <g> <path class="st3" d="M-22.37-45.95h1.86l2.43-3.56v3.56h1.88v-6.44h-1.88l-2.41,3.54v-3.54h-1.87V-45.95z"></path> <path class="st3" d="M-15.14-49.17c0,1.05,0.29,1.87,0.88,2.46c0.59,0.58,1.4,0.88,2.45,0.88c1.07,0,1.9-0.29,2.48-0.86 c0.58-0.58,0.87-1.38,0.87-2.42c0-0.75-0.13-1.37-0.38-1.85c-0.25-0.48-0.62-0.86-1.1-1.13c-0.48-0.27-1.08-0.4-1.79-0.4 c-0.73,0-1.33,0.12-1.8,0.35c-0.48,0.23-0.86,0.6-1.16,1.1S-15.14-49.92-15.14-49.17z M-13.15-49.18c0-0.65,0.12-1.12,0.36-1.4 c0.24-0.29,0.57-0.43,0.99-0.43c0.43,0,0.76,0.14,0.99,0.42c0.23,0.28,0.35,0.78,0.35,1.5c0,0.61-0.12,1.05-0.37,1.33 c-0.25,0.28-0.58,0.42-1,0.42c-0.4,0-0.72-0.14-0.97-0.43C-13.02-48.05-13.15-48.52-13.15-49.18z"></path> <path class="st3" d="M-7.41-45.95h2.62l1.01-3.92l1,3.92h2.62v-6.44h-1.63v4.91l-1.26-4.91h-1.48l-1.25,4.91v-4.91h-1.63V-45.95z "></path> <path class="st3" d="M5.07-51.33H2.81l-0.31-1.06H0.46l2.42,6.44h2.17l2.42-6.44H5.39L5.07-51.33z M4.65-49.93l-0.71,2.32 l-0.7-2.32H4.65z"></path> <path class="st3" d="M8.13-45.95h2.96c0.58,0,1.05-0.08,1.41-0.24c0.36-0.16,0.66-0.39,0.89-0.68s0.4-0.64,0.51-1.03 s0.16-0.81,0.16-1.25c0-0.69-0.08-1.22-0.23-1.6c-0.16-0.38-0.38-0.7-0.65-0.95c-0.28-0.26-0.58-0.43-0.9-0.51 c-0.44-0.12-0.83-0.18-1.19-0.18H8.13V-45.95z M10.12-47.41v-3.52h0.49c0.42,0,0.71,0.05,0.89,0.14 c0.18,0.09,0.31,0.25,0.41,0.48c0.1,0.23,0.15,0.6,0.15,1.12c0,0.68-0.11,1.15-0.33,1.4s-0.59,0.38-1.11,0.38H10.12z"></path> <path class="st3" d="M15.1-45.95h5.34v-1.38H17.1v-1.02h3.1v-1.31h-3.1v-1.27h3.44v-1.46H15.1V-45.95z"></path> </g> </g> <g> <rect x="-1.04" y="-90.1" transform="matrix(-1.836970e-16 1 -1 -1.836970e-16 -41.5585 -40.7169)" class="st3" width="1.24" height="97.92"></rect> </g> <g> <path class="st0" d="M48.47-40.53h-97.92v80.92c0,9.39,7.61,17.01,17.01,17.01h63.91c9.39,0,17.01-7.61,17.01-17.01V-40.53z"></path> </g> <g> <rect x="-8.24" y="-98.53" transform="matrix(-1.836970e-16 1 -1 -1.836970e-16 -49.994 -49.1524)" class="st4" width="15.63" height="97.92"></rect> </g> <g> <g> <path class="st3" d="M-24.84-47.4l-1.78-0.22c-0.05,0.25-0.13,0.42-0.24,0.53c-0.11,0.1-0.25,0.15-0.41,0.15 c-0.29,0-0.52-0.15-0.68-0.44c-0.12-0.21-0.2-0.66-0.26-1.35c0.21,0.22,0.43,0.38,0.66,0.48c0.23,0.1,0.49,0.16,0.78,0.16 c0.57,0,1.06-0.21,1.46-0.62c0.4-0.41,0.6-0.93,0.6-1.56c0-0.43-0.1-0.81-0.3-1.17c-0.2-0.35-0.48-0.62-0.83-0.8 c-0.36-0.18-0.8-0.27-1.34-0.27c-0.65,0-1.16,0.11-1.55,0.33s-0.7,0.57-0.93,1.05c-0.23,0.48-0.35,1.12-0.35,1.91 c0,1.16,0.24,2.02,0.73,2.56c0.49,0.54,1.17,0.81,2.04,0.81c0.51,0,0.92-0.06,1.21-0.18c0.3-0.12,0.54-0.29,0.74-0.52 S-24.95-47.05-24.84-47.4z M-28.14-50.27c0-0.35,0.09-0.62,0.26-0.82c0.18-0.2,0.39-0.3,0.65-0.3c0.23,0,0.43,0.09,0.59,0.27 s0.24,0.45,0.24,0.8c0,0.36-0.08,0.64-0.25,0.83s-0.37,0.29-0.61,0.29c-0.25,0-0.46-0.09-0.63-0.28 C-28.05-49.66-28.14-49.92-28.14-50.27z"></path> <path class="st3" d="M-24.19-49.35h2.6v-1.38h-2.6V-49.35z"></path> <path class="st3" d="M-20.94-50.94l1.78,0.22c0.05-0.25,0.13-0.42,0.24-0.53s0.25-0.15,0.41-0.15c0.29,0,0.51,0.15,0.67,0.44 c0.12,0.21,0.2,0.67,0.26,1.36c-0.21-0.22-0.43-0.38-0.66-0.48c-0.23-0.1-0.49-0.15-0.78-0.15c-0.58,0-1.06,0.21-1.46,0.62 c-0.4,0.41-0.59,0.93-0.59,1.56c0,0.43,0.1,0.82,0.3,1.17s0.48,0.62,0.83,0.8c0.35,0.18,0.8,0.27,1.34,0.27 c0.64,0,1.16-0.11,1.55-0.33c0.39-0.22,0.7-0.57,0.93-1.05c0.23-0.48,0.35-1.12,0.35-1.91c0-1.16-0.25-2.01-0.73-2.55 c-0.49-0.54-1.17-0.81-2.04-0.81c-0.51,0-0.92,0.06-1.21,0.18c-0.3,0.12-0.54,0.29-0.74,0.52S-20.84-51.29-20.94-50.94z M-17.65-48.07c0,0.35-0.09,0.62-0.26,0.82c-0.18,0.2-0.39,0.3-0.64,0.3c-0.24,0-0.43-0.09-0.59-0.27 c-0.16-0.18-0.24-0.45-0.24-0.8c0-0.36,0.08-0.64,0.24-0.83c0.16-0.19,0.37-0.29,0.61-0.29c0.25,0,0.46,0.09,0.63,0.28 C-17.73-48.68-17.65-48.41-17.65-48.07z"></path> <path class="st3" d="M-14.94-50.94l1.78,0.22c0.05-0.25,0.13-0.42,0.24-0.53s0.25-0.15,0.41-0.15c0.29,0,0.51,0.15,0.67,0.44 c0.12,0.21,0.2,0.67,0.26,1.36c-0.21-0.22-0.43-0.38-0.66-0.48c-0.23-0.1-0.49-0.15-0.78-0.15c-0.58,0-1.06,0.21-1.46,0.62 c-0.4,0.41-0.59,0.93-0.59,1.56c0,0.43,0.1,0.82,0.3,1.17s0.48,0.62,0.83,0.8c0.35,0.18,0.8,0.27,1.34,0.27 c0.64,0,1.16-0.11,1.55-0.33c0.39-0.22,0.7-0.57,0.93-1.05c0.23-0.48,0.35-1.12,0.35-1.91c0-1.16-0.25-2.01-0.73-2.55 c-0.49-0.54-1.17-0.81-2.04-0.81c-0.51,0-0.92,0.06-1.21,0.18c-0.3,0.12-0.54,0.29-0.74,0.52S-14.84-51.29-14.94-50.94z M-11.65-48.07c0,0.35-0.09,0.62-0.26,0.82c-0.18,0.2-0.39,0.3-0.64,0.3c-0.24,0-0.43-0.09-0.59-0.27 c-0.16-0.18-0.24-0.45-0.24-0.8c0-0.36,0.08-0.64,0.24-0.83c0.16-0.19,0.37-0.29,0.61-0.29c0.25,0,0.46,0.09,0.63,0.28 C-11.73-48.68-11.65-48.41-11.65-48.07z"></path> <path class="st3" d="M-6.38-45.95h2.21l1.3-2.17l1.3,2.17h2.2l-2.5-3.74v-2.7h-2v2.7L-6.38-45.95z"></path> <path class="st3" d="M1.27-45.95h5.34v-1.38H3.27v-1.02h3.1v-1.31h-3.1v-1.27H6.7v-1.46H1.27V-45.95z"></path> <path class="st3" d="M11.73-51.33H9.47l-0.31-1.06H7.13l2.42,6.44h2.17l2.42-6.44h-2.08L11.73-51.33z M11.32-49.93l-0.71,2.32 l-0.7-2.32H11.32z"></path> <path class="st3" d="M14.8-52.39v6.44h3.32c0.62,0,1.08-0.05,1.41-0.16s0.59-0.3,0.79-0.59c0.2-0.29,0.3-0.63,0.3-1.04 c0-0.36-0.08-0.67-0.23-0.93c-0.15-0.26-0.36-0.47-0.63-0.63c-0.17-0.1-0.4-0.19-0.7-0.25c0.24-0.08,0.41-0.16,0.52-0.24 c0.07-0.05,0.18-0.17,0.32-0.34c0.14-0.17,0.23-0.31,0.28-0.4l0.96-1.87h-2.25l-1.06,1.97c-0.13,0.25-0.25,0.42-0.36,0.5 c-0.14,0.1-0.31,0.15-0.49,0.15H16.8v-2.62H14.8z M16.8-48.56h0.84c0.09,0,0.27,0.03,0.53,0.09c0.13,0.03,0.24,0.09,0.32,0.2 c0.08,0.11,0.13,0.23,0.13,0.37c0,0.21-0.07,0.37-0.2,0.48c-0.13,0.11-0.38,0.17-0.74,0.17H16.8V-48.56z"></path> <path class="st3" d="M21.43-50.26l1.89,0.12c0.04-0.31,0.12-0.54,0.25-0.7c0.2-0.26,0.5-0.39,0.88-0.39c0.28,0,0.5,0.07,0.66,0.2 c0.15,0.13,0.23,0.29,0.23,0.46c0,0.17-0.07,0.32-0.22,0.45c-0.15,0.13-0.49,0.26-1.02,0.37c-0.87,0.2-1.5,0.46-1.87,0.78 c-0.38,0.32-0.56,0.74-0.56,1.24c0,0.33,0.1,0.64,0.29,0.94c0.19,0.29,0.48,0.53,0.87,0.69c0.39,0.17,0.91,0.25,1.58,0.25 c0.82,0,1.45-0.15,1.88-0.46c0.43-0.31,0.69-0.79,0.77-1.46l-1.88-0.11c-0.05,0.29-0.15,0.5-0.31,0.63 c-0.16,0.13-0.38,0.2-0.66,0.2c-0.23,0-0.41-0.05-0.52-0.15c-0.12-0.1-0.18-0.22-0.18-0.36c0-0.1,0.05-0.2,0.15-0.28 c0.09-0.08,0.32-0.16,0.67-0.24c0.87-0.19,1.49-0.38,1.87-0.57c0.38-0.19,0.65-0.43,0.82-0.71c0.17-0.28,0.26-0.6,0.26-0.95 c0-0.41-0.11-0.79-0.34-1.14s-0.55-0.61-0.96-0.79c-0.41-0.18-0.93-0.27-1.55-0.27c-1.1,0-1.85,0.21-2.28,0.63 S21.48-50.91,21.43-50.26z"></path> </g> </g> <path class="st12" d="M-0.69,15.5"></path> <path class="st12" d="M25.16,10.61"></path> <g> <path class="st3" d="M-22.24,4L-22.24,4c1.95,0,3.39-0.51,4.64-1.64c2.12-1.91,4.33-3.78,6.46-5.58c1.16-0.98,2.32-1.96,3.47-2.95 c0.71-0.61,0.84-1.61,0.3-2.33c-0.28-0.37-0.71-0.58-1.2-0.58c-0.37,0-0.74,0.12-1.06,0.36c-0.93,0.68-1.84,1.42-2.81,2.2 c-0.46,0.37-0.93,0.75-1.43,1.14c-0.36,0.29-0.8,0.43-1.24,0.43c-0.28,0-0.57-0.06-0.84-0.18c-0.68-0.32-1.13-0.99-1.16-1.74 l-0.07-1.83c-0.06-1.73-0.12-3.4-0.19-5.07c-0.04-0.99,0.42-1.8,1.36-2.4l0.06-0.04l0.71-0.49c0.81-0.56,1.66-1.14,2.52-1.68 c1.96-1.23,2.12-1.61,1.59-3.69c-0.6-2.36-1.29-5.04-2.23-7.54c-0.26-0.68-0.85-1.13-1.5-1.13c-0.13,0-0.27,0.02-0.4,0.05 c-0.74,0.2-1.13,0.87-0.97,1.66c0.33,1.65,0.79,3.38,1.41,5.27c0.36,1.11,0.42,2.67-1.36,3.85c-0.31,0.2-0.62,0.42-0.92,0.63 c-0.58,0.4-1.19,0.82-1.83,1.2c-0.72,0.43-1.53,0.64-2.47,0.64c-0.39,0-0.75-0.03-1.08-0.06c-0.26-0.02-0.51-0.05-0.71-0.05 c-0.05,0-0.1,0-0.15,0c-0.05,0-0.11,0.01-0.16,0.01c-0.29,0-1.76-0.09-2.19-1.86c-0.26-0.78-0.53-1.56-0.8-2.34 c-0.88-2.57-1.8-5.22-2.54-7.92c-0.35-0.93-0.78-1.3-1.14-1.5c-0.2-0.05-0.39-0.08-0.56-0.08c-0.8,0-1.36,0.59-1.5,0.75 c-0.17,0.34-0.29,0.81,0,1.64c0.81,2.31,1.59,4.66,2.35,6.93c0.63,1.9,1.27,3.79,1.92,5.68c0.4,1.16,0.58,2.35,0.54,3.62 c-0.04,1.27-0.03,2.56-0.02,3.93c0,0.6,0.01,1.21,0.01,1.84c0,0.71-0.38,1.37-0.99,1.73c-0.31,0.18-0.66,0.27-1.01,0.27 c-0.34,0-0.68-0.09-0.99-0.26c-1.22-0.69-2.08-1.52-2.84-2.25c-0.24-0.23-0.47-0.45-0.71-0.66c-0.76-0.68-1.3-1.07-1.8-1.07 c-0.15,0-0.32,0.03-0.5,0.09c-0.65,0.22-1.11,0.69-1.23,1.27c-0.07,0.35-0.05,0.88,0.51,1.38c2.53,2.28,5.14,4.57,7.67,6.78 c1.06,0.92,2.11,1.84,3.16,2.77c0.35,0.31,0.86,0.49,1.69,0.6C-23.63,3.94-22.9,4-22.24,4 M-22.24,6c-0.83,0-1.67-0.08-2.52-0.19 c-0.99-0.13-1.96-0.39-2.74-1.08c-3.62-3.18-7.28-6.33-10.85-9.57c-2.12-1.92-1.28-5.12,1.43-6.03c0.41-0.14,0.78-0.2,1.14-0.2 c1.23,0,2.19,0.73,3.13,1.57c0.99,0.88,1.85,1.89,3.21,2.67c0-2.08-0.04-3.95,0.02-5.82c0.03-1.01-0.1-1.95-0.43-2.91 c-1.44-4.2-2.8-8.42-4.27-12.61c-0.44-1.27-0.39-2.37,0.21-3.39c0,0,1.14-1.65,3.18-1.65c0.4,0,0.84,0.07,1.32,0.22 c1.13,0.54,1.84,1.49,2.29,2.75c0.95,3.48,2.19,6.87,3.34,10.28c0.06,0.18,0.06,0.45,0.28,0.45c0.01,0,0.01,0,0.02,0 c0.1-0.01,0.19-0.01,0.29-0.01c0.59,0,1.19,0.11,1.79,0.11c0.49,0,0.98-0.08,1.44-0.36c0.92-0.55,1.78-1.19,2.68-1.79 c0.58-0.39,0.82-0.77,0.56-1.56c-0.59-1.8-1.1-3.64-1.47-5.5c-0.37-1.88,0.71-3.52,2.41-3.98c0.31-0.08,0.62-0.12,0.92-0.12 c1.46,0,2.81,0.92,3.38,2.42c0.95,2.53,1.63,5.14,2.3,7.75c0.77,2.99,0.16,4.23-2.46,5.88c-1.08,0.68-2.12,1.41-3.17,2.13 c-0.25,0.17-0.56,0.31-0.55,0.71c0.09,2.25,0.17,4.49,0.26,6.91c1.56-1.23,2.89-2.36,4.3-3.39c0.69-0.5,1.47-0.74,2.24-0.74 c1.08,0,2.12,0.48,2.79,1.37c1.17,1.55,0.94,3.74-0.59,5.05c-3.3,2.84-6.67,5.58-9.9,8.49C-18.08,5.49-20.1,6-22.24,6L-22.24,6z"></path> </g> <g> <path class="st3" d="M19.03,27.59c0.89,0,1.8-0.12,2.7-0.34c0.6-0.15,1.2-0.49,2.15-1.21c0.25-0.31,0.91-1.15,1.43-2.19 c1.33-2.63,2.65-5.32,3.93-7.93c0.53-1.08,1.05-2.16,1.58-3.24c0.31-0.63,0.63-1.27,0.94-1.9c0.71-1.43,1.45-2.91,2.12-4.36 c0.79-1.7,0.26-2.29-0.39-2.8C33.21,3.4,33,3.17,32.84,2.93c-0.36,0.25-0.79,0.42-1.3,0.53c-0.37,0.08-0.67,0.55-0.86,0.93 c-1,2.03-2,4.06-3,6.09c-0.97,1.96-1.94,3.92-2.9,5.88c-0.34,0.69-1.04,1.12-1.79,1.12c-0.1,0-0.19-0.01-0.29-0.02 c-0.86-0.12-1.54-0.79-1.68-1.64l-0.49-2.92c-0.04-0.25-0.09-0.5-0.14-0.75c-0.08-0.37-0.16-0.74-0.21-1.16 c-0.32-2.57-0.72-5.18-1.11-7.71c-0.12-0.75-0.23-1.5-0.34-2.26c-0.14-0.92,0.15-1.65,0.32-2.09c0.03-0.07,0.05-0.14,0.08-0.21 c0.68-2.01,1.36-4.03,2.04-6.04c1.07-3.17,2.13-6.34,3.22-9.51c0.39-1.14,0.16-2.37-0.11-3.8c-0.09-0.47-0.17-0.94-0.24-1.41 c-0.17-1.19-0.4-2.41-0.62-3.59c-0.16-0.86-0.32-1.72-0.47-2.58c-0.27-1.6-1.54-2.75-3.04-2.75c-0.16,0-0.33,0.01-0.49,0.04 c-0.81,0.14-1.5,0.57-1.96,1.23c-0.5,0.72-0.69,1.62-0.52,2.55c0.29,1.59,0.56,3.19,0.84,4.78c0.26,1.54,0.53,3.09,0.81,4.63 c0.17,0.93-0.03,1.64-0.2,2.09c-0.27,0.73-0.55,1.45-0.82,2.17c-0.58,1.53-1.19,3.11-1.7,4.66c-0.4,1.21-1.34,1.94-2.51,1.94 c-0.17,0-0.32-0.02-0.44-0.03c-0.17,0.04-0.34,0.07-0.51,0.07c-0.45,0-0.9-0.15-1.27-0.45c-0.63-0.52-0.88-1.36-0.64-2.14 c0.51-1.64,0.91-3.21,1.3-4.74c0.21-0.83,0.42-1.65,0.64-2.47c0.31-1.15,0.11-2.34-0.13-3.72c-0.08-0.47-0.16-0.93-0.22-1.4 c-0.27-2.03-0.65-4.1-1.02-6.1l-0.11-0.62c-0.27-1.48-1.56-2.64-2.93-2.64c-0.15,0-0.3,0.02-0.45,0.04c-1.99,0.4-3,1.86-2.62,3.8 c0.52,2.71,0.99,5.47,1.45,8.13l0.08,0.48c0.21,1.21,0.08,2.39-0.38,3.61c-0.29,0.77-0.6,1.53-0.91,2.3 C4.3-10.66,3.5-8.69,3.13-6.63C2.58-3.6,2.57-0.28,3.1,3.53C3.18,4.1,3.26,4.67,3.33,5.24c0.47,3.47,0.91,6.74,1.88,9.94 c1.52,5.02,3.55,8.12,6.6,10.05C14.32,26.82,16.68,27.59,19.03,27.59 M19.03,29.59c-2.95,0-5.71-1.04-8.29-2.67 c-4.09-2.59-6.09-6.68-7.44-11.16c-1.18-3.9-1.62-7.94-2.18-11.95C0.62,0.2,0.51-3.41,1.16-6.99c0.55-3.06,1.94-5.86,3.04-8.75 c0.33-0.87,0.43-1.69,0.28-2.56c-0.49-2.86-0.98-5.72-1.53-8.58c-0.58-3,1.11-5.51,4.19-6.13c0.28-0.06,0.57-0.08,0.85-0.08 c2.28,0,4.44,1.8,4.9,4.28c0.42,2.27,0.85,4.54,1.15,6.82c0.26,1.95,0.85,3.87,0.3,5.9c-0.63,2.33-1.16,4.69-1.96,7.27 c0.12-0.07,0.25-0.09,0.37-0.09c0.2,0,0.39,0.05,0.57,0.05c0.24,0,0.46-0.1,0.61-0.56c0.77-2.33,1.69-4.6,2.55-6.91 c0.12-0.33,0.18-0.64,0.11-1.03c-0.57-3.13-1.07-6.28-1.64-9.41c-0.53-2.92,1.26-5.63,4.11-6.11c0.28-0.05,0.55-0.07,0.83-0.07 c2.44,0,4.58,1.84,5.01,4.42c0.35,2.08,0.79,4.14,1.09,6.22c0.29,2.03,0.97,4.04,0.26,6.13C24.49-11,22.75-5.81,21-0.63 c-0.15,0.45-0.39,0.85-0.31,1.36c0.5,3.34,1.04,6.67,1.46,10.02c0.08,0.62,0.26,1.24,0.35,1.86l0.49,2.87 c1.96-3.99,3.94-7.98,5.9-11.97c0.48-0.98,1.19-1.78,2.24-2.01c0.86-0.18,0.94-0.57,0.93-1.3c-0.03-5.27-0.01-10.54-0.01-15.8 c0-4.91,0-9.82,0-14.73c0-0.56-0.02-1.12,0.02-1.68c0.05-0.66,0.51-1.02,1.09-1.07c0.03,0,0.06,0,0.09,0 c0.52,0,0.92,0.36,1.02,0.9c0.09,0.46,0.09,0.95,0.09,1.42c0,10.45-0.01,20.91,0,31.36c0,0.49-0.16,1.04,0.35,1.44 c1.87,1.45,1.89,3.28,0.99,5.23c-0.99,2.12-2.05,4.2-3.09,6.3c-1.84,3.73-3.64,7.48-5.52,11.19c-0.8,1.58-1.83,2.74-1.83,2.74 c-1.11,0.85-2.01,1.42-3.05,1.69C21.13,29.46,20.07,29.59,19.03,29.59L19.03,29.59z"></path> </g> <path class="st12" d="M2.41,27.55"></path> <g> <path class="st3" d="M31.8,43.1l0.01-2c3.54-0.01,6.22-2.7,6.23-6.26c0.01-3.57-2.64-6.28-6.19-6.29c-3.56,0-6.35,2.74-6.36,6.23 c0,1.7,0.64,3.29,1.83,4.48c1.19,1.19,2.78,1.84,4.49,1.84L31.8,43.1 M31.8,43.1c-4.63,0-8.33-3.7-8.31-8.33 c0.01-4.62,3.68-8.22,8.36-8.22c0.01,0,0.02,0,0.03,0c4.61,0.02,8.17,3.64,8.16,8.29c-0.01,4.64-3.6,8.25-8.22,8.26 C31.81,43.1,31.8,43.1,31.8,43.1L31.8,43.1z"></path> </g> <g> <path class="st3" d="M-22.84,22.3v-2c2.93,0,5.23-2.24,5.23-5.1c0-2.9-2.31-5.27-5.16-5.28c-2.92,0-5.21,2.26-5.22,5.15 c-0.01,2.97,2.19,5.22,5.12,5.23L-22.84,22.3 M-22.84,22.3c-0.01,0-0.03,0-0.04,0c-4.03-0.02-7.12-3.17-7.11-7.24 c0.02-4,3.19-7.15,7.22-7.15c0.01,0,0.02,0,0.03,0c3.94,0.01,7.14,3.28,7.13,7.28C-15.61,19.18-18.8,22.3-22.84,22.3L-22.84,22.3z "></path> </g> <g class="st1"> <defs> <path id="SVGID_5_" class="st1" d="M48.47-40.74h-97.92v80.92c0,9.39,7.61,17.01,17.01,17.01h63.91 c9.39,0,17.01-7.61,17.01-17.01V-40.74z"></path> </defs> <clipPath id="SVGID_6_"> <use xlink:href="#SVGID_5_" style="overflow:visible;"></use> </clipPath> <g class="st13"> <path class="st3" d="M37.79,36.34V34.9l-0.19-0.86c5-3.6,9.06-8.51,10.9-10.92l1.59,1.21C48.06,26.98,43.46,32.52,37.79,36.34z"></path> <path class="st3" d="M26.52,41C14.7,43.78,4.69,41.04-3.58,38.76c-1.59-0.44-3.09-0.85-4.52-1.2c-7.5-1.83-16.31-3.56-22.44-4.4 c-7.01-0.96-14.4-0.66-19.37-0.24l-0.17-1.99c5.07-0.43,12.62-0.73,19.81,0.25c6.19,0.84,15.08,2.59,22.65,4.44 c1.46,0.36,2.98,0.77,4.58,1.22c7.7,2.12,16.97,4.67,27.75,2.52c0.09,0.28,0.15,0.49,0.18,0.58C24.94,40.16,25.68,40.58,26.52,41 z"></path> </g> </g> </symbol> <symbol id="Nouveau_symbole_5" viewBox="-48.96 -57.39 97.92 114.78"> <rect x="-0.62" y="-90.1" transform="matrix(-1.836970e-16 1 -1 -1.836970e-16 -41.138 -41.1373)" class="st3" width="1.24" height="97.92"></rect> <path class="st0" d="M48.96-40.53h-97.92v80.92c0,9.39,7.61,17.01,17.01,17.01h63.91c9.39,0,17.01-7.61,17.01-17.01V-40.53z"></path> <rect x="-7.82" y="-98.53" transform="matrix(-1.836970e-16 1 -1 -1.836970e-16 -49.5735 -49.5728)" class="st4" width="15.63" height="97.92"></rect> <path class="st3" d="M-20.18-46.36h1.78l2.32-3.42v3.42h1.8v-6.17h-1.8l-2.31,3.39v-3.39h-1.79V-46.36z"></path> <path class="st3" d="M-12.56-49.45c0,1.01,0.28,1.79,0.84,2.35c0.56,0.56,1.34,0.84,2.35,0.84c1.03,0,1.82-0.28,2.37-0.83 c0.56-0.55,0.83-1.32,0.83-2.32c0-0.72-0.12-1.31-0.36-1.77c-0.24-0.46-0.59-0.82-1.05-1.08c-0.46-0.26-1.03-0.39-1.72-0.39 c-0.7,0-1.27,0.11-1.73,0.33c-0.46,0.22-0.83,0.57-1.11,1.05C-12.42-50.77-12.56-50.17-12.56-49.45z M-10.66-49.46 c0-0.62,0.12-1.07,0.35-1.34s0.55-0.41,0.95-0.41c0.41,0,0.73,0.13,0.95,0.4c0.22,0.27,0.34,0.75,0.34,1.44 c0,0.58-0.12,1.01-0.35,1.27c-0.23,0.27-0.55,0.4-0.95,0.4c-0.38,0-0.69-0.14-0.93-0.41C-10.54-48.38-10.66-48.83-10.66-49.46z"></path> <path class="st3" d="M-4.47-46.36h2.51l0.97-3.76l0.96,3.76h2.51v-6.17H0.91v4.71l-1.2-4.71h-1.41l-1.2,4.71v-4.71h-1.56V-46.36z"></path> <path class="st3" d="M8.17-51.52H6.01l-0.3-1.02H3.76l2.32,6.17h2.08l2.32-6.17h-2L8.17-51.52z M7.78-50.18L7.1-47.96l-0.67-2.22 H7.78z"></path> <path class="st3" d="M11.8-46.36h2.83c0.56,0,1.01-0.08,1.35-0.23s0.63-0.37,0.85-0.65s0.39-0.61,0.49-0.99 c0.1-0.38,0.15-0.78,0.15-1.2c0-0.66-0.08-1.17-0.22-1.54c-0.15-0.36-0.36-0.67-0.63-0.91c-0.27-0.25-0.55-0.41-0.86-0.49 c-0.42-0.11-0.8-0.17-1.14-0.17H11.8V-46.36z M13.71-47.76v-3.37h0.47c0.4,0,0.68,0.04,0.85,0.13c0.17,0.09,0.3,0.24,0.4,0.46 c0.09,0.22,0.14,0.58,0.14,1.07c0,0.65-0.11,1.1-0.32,1.34c-0.21,0.24-0.57,0.36-1.06,0.36H13.71z"></path> <path class="st2" d="M23.42-30.24c-7.95-1.38-25.36-3.75-45.29,0.02c-4.4,0.83-4.4,5.09-4.4,5.09V7.14c0,0-1.94,31.56,27.25,30.77 C30.18,37.12,27.8,7.41,27.8,7.41l0.04-31.25C27.84-23.84,28.71-29.33,23.42-30.24z"></path> <path class="st2" d="M-5.51,37.5c0,0-0.5,6.76,6.29,7.16s6.47-7.6,6.47-7.6"></path> <path class="st7" d="M-21.86,26.28l1.66,18.09c0,0,4.14-6.16,4.38-11.11"></path> <path class="st2" d="M-19.95,44.22l7.29,0.45c0,0,2.98-4.74,3.59-8"></path> <polyline class="st2" points="10.13,36.66 14.76,44.67 20.75,44.63 17.33,32.93 "></polyline> <path class="st8" d="M21.99,44.67c0,0,1.72-9.78,1.39-18.38"></path> <g class="st1"> <path class="st2" d="M8.11,26.11C5.49,27.3,2.15,28.84-2.26,27.9c-4.15-0.88-7.58-5.66-7.58-5.66c-1.04-1.66-2.31-4.02-3.72-7.31 c-3.85-8.97-3.32-6.68-5.73-13.42c-2.4-6.74-4.24-15.85,3.31-21.77c0,0,2.74-2.32,6.98-3.37"></path> <path class="st2" d="M-13.73-4.07c1.27,7.04,1.12,4.7,3.46,14.18c0.86,3.48,1.72,6.01,2.47,7.82c0,0,2.6,5.27,6.55,6.82 c4.84,1.9,6.43,2.05,9.36,1.36c1.99-0.46,6.78-2.62,8.61-2.9c0,0,1.65-0.22,3.76-0.22l0.26-26.07c-0.44,0-0.94-0.08-1.45-0.35 c-0.46-0.25-0.87-0.7-1.14-1.32c-0.65-1.51-0.93-7.12-0.93-7.12c-0.01-7.11-2.42-9.4-2.42-9.4C4.79-32-6.91-25-6.91-25 C-15.32-20.4-15-11.11-13.73-4.07z M1.62,15.69c1.35,0.01,2.43,1.12,2.41,2.46c-0.01,1.35-1.12,2.43-2.46,2.41 c-1.35-0.01-2.43-1.12-2.41-2.46S0.27,15.68,1.62,15.69z"></path> </g> </symbol> <symbol id="Nouveau_symbole_7_3_" viewBox="-48.96 -57.39 97.92 114.78"> <path class="st0" d="M48.96-40.53h-97.92v80.92c0,9.39,7.61,17.01,17.01,17.01h63.91c9.39,0,17.01-7.61,17.01-17.01V-40.53z"></path> <path class="st9" d="M43.52-41.15c-0.62,2.3-1.29,4.11-3.19,11.53c-1.15,4.49-2.31,7.76-3.3,10.1c0,0-3.44,6.79-8.57,8.75 C23-8.69,18.43-10,14.84-10.99"></path> <path class="st9" d="M-13.56-11.16c-3.68,1-8.45,2.58-14.21,0.38c-5.13-1.96-8.57-8.75-8.57-8.75c-1-2.34-2.15-5.6-3.3-10.1 c-1.91-7.42-2.58-9.23-3.19-11.53"></path> <circle class="st10" cx="24.96" cy="-22.47" r="3.18"></circle> <rect x="-0.61" y="-90.11" transform="matrix(-1.836970e-16 1 -1 -1.836970e-16 -41.1466 -41.1461)" class="st3" width="1.22" height="97.92"></rect> <rect x="-7.82" y="-98.53" transform="matrix(-1.836970e-16 1 -1 -1.836970e-16 -49.5734 -49.5729)" class="st4" width="15.63" height="97.92"></rect> <path class="st2" d="M26.81,32.83c-0.42-1.35-1.4-2.28-2.37-3.24c-3.37-3.35-6.72-6.72-10.09-10.07c-0.36-0.36-0.51-0.71-0.51-1.22 c0.01-15.24,0.01-30.48,0.01-45.72c0-1.92-0.86-3.36-2.6-4.08C8.14-32.79,5-30.75,4.99-27.53C4.97-23.24,4.97-18.96,5-14.67 c0,0.54-0.16,0.66-0.67,0.66c-2.92-0.02-5.85-0.02-8.77,0c-0.51,0-0.63-0.14-0.63-0.63c0.02-4.22,0.01-8.43,0.01-12.65 c0-1.77-0.71-3.2-2.28-4.03c-2.96-1.56-6.63,0.26-6.64,3.95c-0.03,7.27-0.01,14.55-0.01,21.82c0,7.79-0.01,15.58,0.02,23.36 c0,0.66-0.21,1.11-0.67,1.57c-3.79,3.76-7.55,7.53-11.32,11.31c-1.26,1.26-1.65,2.8-1.15,4.49c0.51,1.71,1.71,2.75,3.45,3.08 c1.53,0.29,2.86-0.15,3.97-1.26c3.9-3.9,7.8-7.79,11.68-11.7c0.36-0.36,0.72-0.5,1.23-0.5c4.37,0.02,8.75,0.02,13.12,0 c0.49,0,0.82,0.15,1.16,0.49c3.87,3.89,7.75,7.78,11.64,11.65c2.03,2.02,5.08,1.84,6.81-0.37c0.4-0.52,0.6-1.13,0.85-1.72 C26.81,34.17,26.81,33.5,26.81,32.83z"></path> <path class="st2" d="M1.37,48.02c0.44-0.13,0.88-0.26,1.31-0.39c3.84-1.16,6.75-4.95,6.47-9.46c-0.24-3.97-3.32-7.6-7.26-8.37 C-3.37,28.76-8.22,32-9.15,37.27c-0.86,4.89,2.32,9.62,7.35,10.61c0.13,0.02,0.27,0,0.35,0.14C-0.51,48.02,0.43,48.02,1.37,48.02z"></path> <path class="st3" d="M16.31,5.24c0.02-8.85-7.27-16.25-15.93-16.39c-8.91-0.15-16.7,6.82-16.8,16.31 c-0.1,8.92,7.34,16.42,16.19,16.44C8.91,21.62,16.28,14.34,16.31,5.24z M-2.74-7.25c0.87-0.01,1.56,0.23,2.15,0.71 c0.53,0.43,0.97,0.93,1.34,1.5c2.78,4.16,5.44,8.4,7.92,12.75c0.89,1.56,1.81,3.11,2.43,4.8c0.41,1.13,0.15,1.81-0.9,2.55 C9.19,15.78,8.38,15.79,7.5,15c-0.65-0.57-1.24-1.21-1.82-1.86C2.61,9.73-0.23,6.13-3.04,2.5c-0.47-0.61-0.72-0.53-1.12,0 c-0.71,0.95-1.55,1.8-2.4,2.63c-1.08,1.06-1.78,1.19-2.88,0.5c-1.29-0.81-1.49-1.43-0.97-2.92c1.01-2.87,2.52-5.47,4.33-7.9 C-5.21-6.36-4.04-7.12-2.74-7.25z"></path> <g> <text transform="matrix(1 0 0 -1 -12.25 -52.3887)" class="st3" style="font-family:'Arial-Black'; font-size:9px;">SAIN</text> </g> </symbol> <g id="Nouveau_symbole_3"> <g id="Nouveau_symbole_15"> <g id="Nouveau_symbole_8_2_"> <g id="Nouveau_symbole_7_2_"> <rect y="-0.86" class="st0" width="114.8" height="115.65"></rect> <g class="st1"> <path class="st3" d="M29.62,53.67c-3.5,0-6.12-1.56-6.17-1.59c-6.57-3.68-5.08-11.55-4.58-14.14c0.5-2.61,0.68-3.22,1.04-4.43 c0.25-0.85,0.6-2.02,1.22-4.45c0.5-1.94,1.05-3.62,1.64-5.01c0.1-0.21,1.89-3.69,4.69-4.75c2.9-1.1,5.33-0.43,7.11,0.06 c0.28,0.08,0.55,0.15,0.81,0.21c1.35,0.33,2.93,0.64,4.04,0.79c1.94,0.26,4.12-0.04,4.14-0.04c1.03-0.17,2.54-0.45,3.78-0.75 c0.26-0.06,0.52-0.14,0.81-0.21c1.78-0.49,4.21-1.16,7.11-0.06c2.8,1.07,4.59,4.55,4.66,4.7c0.62,1.44,1.17,3.13,1.67,5.07 c0.62,2.43,0.97,3.6,1.22,4.45c0.36,1.21,0.54,1.82,1.04,4.43c0.31,1.65,0.47,3.1,0.48,4.43l-2,0.02 c-0.01-1.21-0.16-2.54-0.45-4.08c-0.48-2.51-0.64-3.05-0.99-4.24c-0.26-0.87-0.61-2.05-1.24-4.52 c-0.47-1.84-0.99-3.43-1.54-4.72c0,0,0,0,0,0c0,0-1.5-2.88-3.57-3.67c-2.28-0.87-4.19-0.35-5.87,0.12 c-0.3,0.08-0.59,0.16-0.86,0.23c-1.3,0.32-2.86,0.6-3.94,0.78c-0.12,0.02-2.49,0.35-4.72,0.05c-1.16-0.16-2.83-0.48-4.24-0.83 c-0.27-0.07-0.56-0.15-0.86-0.23c-1.68-0.46-3.58-0.99-5.87-0.12c-2.07,0.79-3.58,3.7-3.59,3.73 c-0.52,1.23-1.04,2.82-1.51,4.66c-0.63,2.46-0.98,3.65-1.24,4.52c-0.35,1.18-0.51,1.72-0.99,4.24 c-1.18,6.17-0.02,9.99,3.63,12.04c0.3,0.18,6.69,3.93,12.35-2.01c0.04-0.04,1.24-1.33,1.29-5.17c0.04-0.66,0.25-3.78,0.71-4.83 c0.26-0.57,0.67-1.03,1.2-1.32c0.17-0.08,1.4-0.66,2.7,0.02c0.51,0.26,0.91,0.71,1.17,1.3c0.47,1.05,0.67,4.17,0.71,4.78 c0.05,3.89,1.25,5.18,1.27,5.19c4.63,4.86,9.74,3.28,11.71,2.37l0.83,1.82c-1.85,0.85-8.32,3.14-13.97-2.79 c-0.14-0.13-1.79-1.79-1.84-6.52c-0.09-1.55-0.33-3.56-0.54-4.04C42,39,41.9,38.87,41.8,38.82c-0.41-0.21-0.85-0.02-0.86-0.02 c-0.11,0.06-0.22,0.19-0.3,0.36c-0.21,0.48-0.45,2.49-0.54,4.09c-0.05,4.68-1.69,6.34-1.88,6.52 C35.34,52.8,32.24,53.67,29.62,53.67z"></path> </g> <g class="st1"> <circle class="st3" cx="53.22" cy="25.87" r="1.53"></circle> </g> <g> <path class="st3" d="M63.5,92.24c-4.68-1.16-7.69-3.68-7.82-3.79c-9.73-7.62-5.27-20.13-3.81-24.23 c1.51-4.24,1.94-5.14,2.88-7.13c0.65-1.37,1.54-3.25,3.23-7.19c1.33-3.1,2.69-5.76,4.02-7.91c0.19-0.27,3.96-5.45,8.69-6.46 c4.94-1.05,8.74,0.66,11.52,1.91l0.12,0.05l-0.82,1.82l-0.12-0.06c-2.67-1.2-5.98-2.69-10.28-1.78 c-3.97,0.85-7.42,5.57-7.45,5.62c-1.25,2.01-2.56,4.58-3.85,7.58c-1.7,3.97-2.6,5.87-3.26,7.26c-0.91,1.92-1.33,2.8-2.8,6.95 c-3.71,10.41-2.7,17.4,3.19,22.01c0.06,0.05,2.84,2.36,7.04,3.4L63.5,92.24z"></path> </g> <g> <path class="st3" d="M75.39,96.09c-5.65,0-9.86-2.45-9.94-2.5c-10.85-5.93-8.49-18.99-7.72-23.28l0,0 c0.8-4.43,1.07-5.39,1.67-7.5c0.42-1.46,0.99-3.46,2.01-7.63c0.81-3.28,1.71-6.12,2.68-8.46c0.15-0.3,3.02-6.03,7.52-7.8 c5.13-2.02,7.1-2.29,10.54-1.49c1.03,0.24,2.62,0.84,4.3,1.48c1.79,0.68,3.82,1.45,4.77,1.59l0,0c0,0,1.7,0.22,3.83,0.22 c0,0,0.01,0,0.01,0h0.99l0.3,29.71h-1.01c-0.4,0-0.75,0.08-1.07,0.25c-0.3,0.16-0.57,0.49-0.76,0.92 c-0.45,1.05-0.8,4.99-0.91,7.22c-0.01,7.85-2.76,10.55-2.88,10.66C84.94,94.63,79.74,96.09,75.39,96.09z M59.71,70.66 c-1.96,10.87,0.19,17.61,6.75,21.2c0.51,0.3,11.92,6.88,21.87-3.77c0.05-0.05,2.29-2.38,2.3-9.31 c0.03-0.68,0.33-6.24,1.07-7.96c0.37-0.86,0.94-1.51,1.66-1.89c0.32-0.17,0.65-0.29,1-0.37l-0.26-25.83 c-1.78-0.05-3.07-0.22-3.14-0.23c-1.18-0.19-3.13-0.92-5.19-1.7c-1.55-0.58-3.15-1.19-4.05-1.4c-2.85-0.67-4.34-0.57-9.36,1.4 c-3.79,1.49-6.41,6.71-6.43,6.76c-0.9,2.18-1.77,4.93-2.55,8.11c-1.03,4.2-1.61,6.22-2.03,7.7 C60.75,65.4,60.48,66.33,59.71,70.66L59.71,70.66z M75,50.48c-0.95,0-1.84-0.36-2.51-1.03c-0.69-0.67-1.07-1.57-1.08-2.53 c-0.01-0.96,0.35-1.87,1.03-2.55c0.67-0.69,1.57-1.07,2.53-1.08c0.01,0,0.02,0,0.04,0c1.96,0,3.57,1.59,3.59,3.55 c0.02,1.98-1.58,3.61-3.56,3.63C75.03,50.48,75.02,50.48,75,50.48z M75.01,45.3c-0.01,0-0.01,0-0.02,0 c-0.43,0-0.82,0.17-1.12,0.48c-0.3,0.3-0.46,0.71-0.46,1.13c0,0.42,0.17,0.82,0.48,1.12c0.3,0.3,0.7,0.46,1.13,0.45 c0.88-0.01,1.58-0.73,1.58-1.61C76.59,46,75.88,45.3,75.01,45.3z"></path> </g> <g> <path class="st3" d="M25.69,57.81c-0.27,0.79-0.61,1.63-0.86,2.51c-0.4,1.4-0.48,2.83-0.01,4.23c0.7,2.1,2.15,3.38,4.32,3.79 c1.21,0.23,2.45,0.34,3.67,0.5c0.32,0.04,0.42-0.08,0.42-0.4c-0.01-1.6-0.01-3.2-0.01-4.79c0-0.13,0-0.25,0-0.3 c2.78,2.75,5.58,5.53,8.4,8.32c-2.8,2.78-5.63,5.58-8.46,8.39c0-0.25,0-0.54,0-0.82c0-1.32-0.01-2.64-0.01-3.97 c0-0.47,0-0.46-0.47-0.48c-2.24-0.05-4.4-0.45-6.36-1.62c-2.26-1.35-3.53-3.35-3.86-5.96c-0.29-2.33,0.33-4.47,1.36-6.53 C24.36,59.65,25.01,58.66,25.69,57.81z"></path> </g> </g> </g> <g id="Nouveau_symbole_8_1_"> <g id="Nouveau_symbole_7_1_"> </g> </g> <g id="Nouveau_symbole_9_2_"> <g id="Nouveau_symbole_1_3_"> <g id="Nouveau_symbole_19_3_"> </g> </g> </g> <g id="Nouveau_symbole_9_1_"> <g id="Nouveau_symbole_1_2_"> <g id="Nouveau_symbole_19_2_"> </g> </g> </g> <g id="Nouveau_symbole_10_1_"> <g id="Nouveau_symbole_2_"> </g> </g> <g id="Nouveau_symbole_10"> <g id="Nouveau_symbole"> </g> </g> <g id="Nouveau_symbole_12_2_"> <g id="Nouveau_symbole_2_3_"> </g> </g> <g id="Nouveau_symbole_13"> <g id="Nouveau_symbole_14_2_"> <g id="Nouveau_symbole_11_4_"> <g id="Nouveau_symbole_4_5_"> <g id="Nouveau_symbole_16_5_"> </g> </g> </g> </g> <g id="Nouveau_symbole_14_1_"> <g id="Nouveau_symbole_11_3_"> <g id="Nouveau_symbole_4_4_"> <g id="Nouveau_symbole_16_4_"> </g> </g> </g> </g> <g id="Nouveau_symbole_12_3_"> <g id="Nouveau_symbole_2_4_"> </g> </g> <g id="Nouveau_symbole_12_1_"> <g id="Nouveau_symbole_2_2_"> </g> </g> <g id="Nouveau_symbole_12"> <g id="Nouveau_symbole_2"> </g> </g> <g id="Nouveau_symbole_14"> <g id="Nouveau_symbole_11"> <g id="Nouveau_symbole_4"> <g id="Nouveau_symbole_16"> </g> </g> </g> </g> </g> <g id="Nouveau_symbole_8"> <g id="Nouveau_symbole_7"> </g> </g> <g id="Nouveau_symbole_9"> <g id="Nouveau_symbole_1"> <g id="Nouveau_symbole_19"> </g> </g> </g> </g> <g id="Nouveau_symbole_31"> <g id="Nouveau_symbole_30"> </g> </g> <g id="Nouveau_symbole_32"> <g id="Nouveau_symbole_26"> </g> </g> </g> </svg> 